<svg width="20" height="20" viewBox="0 0 20 20" fill="none" xmlns="http://www.w3.org/2000/svg">
<path d="M11.7044 10.8333H13.0777V13.1833L15.3115 14.3583L14.6248 15.4417L11.7044 13.9083V10.8333ZM15.3664 6.66668H2.54949V15.8333H6.82484C6.43118 15.075 6.21146 14.225 6.21146 13.3333C6.21146 11.7862 6.88664 10.3025 8.08846 9.20855C9.29027 8.11459 10.9203 7.50001 12.6199 7.50001C13.5995 7.50001 14.5333 7.70001 15.3664 8.05834V6.66668ZM2.54949 17.5C2.06388 17.5 1.59817 17.3244 1.25479 17.0119C0.911413 16.6993 0.718506 16.2754 0.718506 15.8333V4.16668C0.718506 3.24168 1.53329 2.50001 2.54949 2.50001H3.46498V0.833344H5.29597V2.50001H12.6199V0.833344H14.4509V2.50001H15.3664C15.852 2.50001 16.3177 2.6756 16.6611 2.98817C17.0045 3.30073 17.1974 3.72465 17.1974 4.16668V9.25001C18.3326 10.3 19.0284 11.7417 19.0284 13.3333C19.0284 14.8804 18.3532 16.3642 17.1514 17.4581C15.9496 18.5521 14.3195 19.1667 12.6199 19.1667C10.8713 19.1667 9.28752 18.5333 8.134 17.5H2.54949ZM12.6199 9.29168C11.4423 9.29168 10.3129 9.71749 9.48026 10.4755C8.64757 11.2334 8.17977 12.2614 8.17977 13.3333C8.17977 15.5667 10.1664 17.375 12.6199 17.375C13.203 17.375 13.7804 17.2705 14.3191 17.0674C14.8578 16.8642 15.3473 16.5665 15.7596 16.1912C16.1719 15.8159 16.4989 15.3704 16.7221 14.88C16.9452 14.3897 17.0601 13.8641 17.0601 13.3333C17.0601 11.1 15.0734 9.29168 12.6199 9.29168Z" fill="white"/>
</svg>
