<svg width="22" height="14" viewBox="0 0 22 14" fill="none" xmlns="http://www.w3.org/2000/svg">
<path d="M10.9579 0.333344C16.5195 0.333344 21.0283 2.57168 21.0283 5.33334V8.66668C21.0283 11.4283 16.5195 13.6667 10.9579 13.6667C5.49513 13.6667 1.04858 11.5075 0.892029 8.81418L0.887451 8.66668V5.33334C0.887451 2.57168 5.39625 0.333344 10.9579 0.333344ZM10.9579 10.3333C7.55224 10.3333 4.54027 9.49418 2.71844 8.20834V8.66668C2.71844 10.235 6.2733 12 10.9579 12C15.5445 12 19.049 10.3083 19.1927 8.76501L19.1973 8.66668L19.1982 8.20834C17.3764 9.49334 14.3644 10.3333 10.9579 10.3333ZM10.9579 2.00001C6.2733 2.00001 2.71844 3.76501 2.71844 5.33334C2.71844 6.90168 6.2733 8.66668 10.9579 8.66668C15.6424 8.66668 19.1973 6.90168 19.1973 5.33334C19.1973 3.76501 15.6424 2.00001 10.9579 2.00001Z" fill="white"/>
</svg>
