<svg width="498" height="349" viewBox="0 0 498 349" fill="none" xmlns="http://www.w3.org/2000/svg">
<path d="M24.9268 309.72L20.4308 315.736V321H18.7828V315.736L14.2867 309.72H16.1748L19.6148 314.376L23.0548 309.72H24.9268ZM27.7776 321.112C27.0096 321.112 26.3323 320.947 25.7456 320.616C25.1696 320.285 24.7216 319.816 24.4016 319.208C24.0923 318.589 23.9376 317.875 23.9376 317.064C23.9376 316.243 24.0923 315.528 24.4016 314.92C24.7216 314.301 25.1696 313.827 25.7456 313.496C26.3323 313.165 27.0096 313 27.7776 313C28.5456 313 29.2176 313.165 29.7936 313.496C30.3803 313.827 30.8283 314.301 31.1376 314.92C31.4576 315.528 31.6176 316.243 31.6176 317.064C31.6176 317.875 31.4576 318.589 31.1376 319.208C30.8283 319.816 30.3803 320.285 29.7936 320.616C29.2176 320.947 28.5456 321.112 27.7776 321.112ZM27.7776 319.832C28.4923 319.832 29.0363 319.597 29.4096 319.128C29.7936 318.659 29.9856 317.971 29.9856 317.064C29.9856 316.168 29.7936 315.485 29.4096 315.016C29.0256 314.536 28.4816 314.296 27.7776 314.296C27.0736 314.296 26.5296 314.536 26.1456 315.016C25.7616 315.485 25.5696 316.168 25.5696 317.064C25.5696 317.971 25.7563 318.659 26.1296 319.128C26.5136 319.597 27.063 319.832 27.7776 319.832ZM40.2649 313.192V321H38.6969V319.736C38.4515 320.184 38.1102 320.525 37.6729 320.76C37.2462 320.995 36.7662 321.112 36.2329 321.112C34.3342 321.112 33.3849 320.067 33.3849 317.976V313.192H35.0009V317.96C35.0009 318.589 35.1289 319.053 35.3849 319.352C35.6409 319.651 36.0355 319.8 36.5689 319.8C37.1982 319.8 37.6995 319.597 38.0729 319.192C38.4569 318.787 38.6489 318.248 38.6489 317.576V313.192H40.2649ZM50.953 313C52.8197 313 53.753 314.051 53.753 316.152V321H52.137V316.232C52.137 315.571 52.0037 315.085 51.737 314.776C51.481 314.467 51.0757 314.312 50.521 314.312C49.8703 314.312 49.3477 314.515 48.953 314.92C48.5583 315.325 48.361 315.869 48.361 316.552V321H46.745V309.72H48.361V314.376C48.6277 313.928 48.985 313.587 49.433 313.352C49.881 313.117 50.3877 313 50.953 313ZM59.2278 313C60.2731 313 61.0464 313.261 61.5478 313.784C62.0598 314.307 62.3158 315.101 62.3158 316.168V321H60.7638V319.704C60.5611 320.163 60.2571 320.515 59.8518 320.76C59.4571 320.995 58.9931 321.112 58.4598 321.112C57.9478 321.112 57.4784 321.011 57.0518 320.808C56.6251 320.595 56.2891 320.301 56.0438 319.928C55.8091 319.555 55.6918 319.139 55.6918 318.68C55.6918 318.115 55.8358 317.672 56.1238 317.352C56.4224 317.021 56.9078 316.787 57.5798 316.648C58.2624 316.509 59.1958 316.44 60.3798 316.44H60.7478V315.976C60.7478 315.379 60.6198 314.947 60.3638 314.68C60.1184 314.413 59.7131 314.28 59.1478 314.28C58.2624 314.28 57.3771 314.552 56.4918 315.096L56.0118 313.96C56.4278 313.672 56.9291 313.443 57.5158 313.272C58.1131 313.091 58.6838 313 59.2278 313ZM58.7478 319.912C59.3344 319.912 59.8144 319.715 60.1878 319.32C60.5611 318.915 60.7478 318.397 60.7478 317.768V317.352H60.4598C59.6278 317.352 58.9878 317.389 58.5398 317.464C58.0918 317.539 57.7718 317.667 57.5798 317.848C57.3878 318.019 57.2918 318.269 57.2918 318.6C57.2918 318.973 57.4251 319.288 57.6918 319.544C57.9691 319.789 58.3211 319.912 58.7478 319.912ZM70.0623 313.208H71.6783L68.2863 321H66.8303L63.4703 313.208H65.1663L67.5983 319.176L70.0623 313.208ZM79.4174 317.368H73.8974C74.0147 319.021 74.836 319.848 76.3614 319.848C77.2574 319.848 78.068 319.555 78.7934 318.968L79.2894 320.104C78.9267 320.413 78.4787 320.659 77.9454 320.84C77.412 321.021 76.868 321.112 76.3134 321.112C75.0654 321.112 74.0787 320.755 73.3534 320.04C72.6387 319.325 72.2814 318.339 72.2814 317.08C72.2814 316.28 72.436 315.571 72.7454 314.952C73.0654 314.333 73.508 313.853 74.0734 313.512C74.6494 313.171 75.3 313 76.0254 313C77.0814 313 77.908 313.341 78.5054 314.024C79.1134 314.707 79.4174 315.651 79.4174 316.856V317.368ZM76.0574 314.184C75.4387 314.184 74.9427 314.381 74.5694 314.776C74.2067 315.16 73.988 315.715 73.9134 316.44H78.0254C77.9934 315.715 77.8067 315.16 77.4654 314.776C77.1347 314.381 76.6654 314.184 76.0574 314.184ZM89.6249 313C91.4915 313 92.4249 314.051 92.4249 316.152V321H90.8089V316.232C90.8089 315.571 90.6755 315.085 90.4089 314.776C90.1529 314.467 89.7475 314.312 89.1929 314.312C88.5422 314.312 88.0195 314.515 87.6249 314.92C87.2302 315.325 87.0329 315.869 87.0329 316.552V321H85.4169V313.192H87.0009V314.44C87.2569 313.971 87.6142 313.613 88.0729 313.368C88.5315 313.123 89.0489 313 89.6249 313ZM98.0276 321.112C97.2596 321.112 96.5823 320.947 95.9956 320.616C95.4196 320.285 94.9716 319.816 94.6516 319.208C94.3423 318.589 94.1876 317.875 94.1876 317.064C94.1876 316.243 94.3423 315.528 94.6516 314.92C94.9716 314.301 95.4196 313.827 95.9956 313.496C96.5823 313.165 97.2596 313 98.0276 313C98.7956 313 99.4676 313.165 100.044 313.496C100.63 313.827 101.078 314.301 101.388 314.92C101.708 315.528 101.868 316.243 101.868 317.064C101.868 317.875 101.708 318.589 101.388 319.208C101.078 319.816 100.63 320.285 100.044 320.616C99.4676 320.947 98.7956 321.112 98.0276 321.112ZM98.0276 319.832C98.7423 319.832 99.2863 319.597 99.6596 319.128C100.044 318.659 100.236 317.971 100.236 317.064C100.236 316.168 100.044 315.485 99.6596 315.016C99.2756 314.536 98.7316 314.296 98.0276 314.296C97.3236 314.296 96.7796 314.536 96.3956 315.016C96.0116 315.485 95.8196 316.168 95.8196 317.064C95.8196 317.971 96.0063 318.659 96.3796 319.128C96.7636 319.597 97.313 319.832 98.0276 319.832ZM107.332 319.864C107.577 319.864 107.817 319.848 108.052 319.816L107.972 321.048C107.705 321.091 107.428 321.112 107.14 321.112C106.126 321.112 105.369 320.867 104.868 320.376C104.377 319.875 104.132 319.155 104.132 318.216V314.44H102.612V313.192H104.132V310.84H105.748V313.192H107.892V314.44H105.748V318.152C105.748 319.293 106.276 319.864 107.332 319.864ZM122.455 313C124.204 313 125.079 314.051 125.079 316.152V321H123.463V316.216C123.463 315.555 123.346 315.075 123.111 314.776C122.887 314.467 122.519 314.312 122.007 314.312C121.42 314.312 120.956 314.515 120.615 314.92C120.274 315.325 120.103 315.88 120.103 316.584V321H118.487V316.216C118.487 315.555 118.37 315.075 118.135 314.776C117.9 314.467 117.532 314.312 117.031 314.312C116.434 314.312 115.964 314.515 115.623 314.92C115.282 315.325 115.111 315.88 115.111 316.584V321H113.495V313.192H115.079V314.376C115.324 313.939 115.655 313.603 116.071 313.368C116.487 313.123 116.962 313 117.495 313C118.7 313 119.484 313.501 119.847 314.504C120.092 314.035 120.444 313.667 120.903 313.4C121.362 313.133 121.879 313 122.455 313ZM130.556 313C131.601 313 132.375 313.261 132.876 313.784C133.388 314.307 133.644 315.101 133.644 316.168V321H132.092V319.704C131.889 320.163 131.585 320.515 131.18 320.76C130.785 320.995 130.321 321.112 129.788 321.112C129.276 321.112 128.807 321.011 128.38 320.808C127.953 320.595 127.617 320.301 127.372 319.928C127.137 319.555 127.02 319.139 127.02 318.68C127.02 318.115 127.164 317.672 127.452 317.352C127.751 317.021 128.236 316.787 128.908 316.648C129.591 316.509 130.524 316.44 131.708 316.44H132.076V315.976C132.076 315.379 131.948 314.947 131.692 314.68C131.447 314.413 131.041 314.28 130.476 314.28C129.591 314.28 128.705 314.552 127.82 315.096L127.34 313.96C127.756 313.672 128.257 313.443 128.844 313.272C129.441 313.091 130.012 313 130.556 313ZM130.076 319.912C130.663 319.912 131.143 319.715 131.516 319.32C131.889 318.915 132.076 318.397 132.076 317.768V317.352H131.788C130.956 317.352 130.316 317.389 129.868 317.464C129.42 317.539 129.1 317.667 128.908 317.848C128.716 318.019 128.62 318.269 128.62 318.6C128.62 318.973 128.753 319.288 129.02 319.544C129.297 319.789 129.649 319.912 130.076 319.912ZM143.054 309.72V321H141.454V319.656C141.22 320.125 140.878 320.488 140.43 320.744C139.982 320.989 139.465 321.112 138.878 321.112C138.206 321.112 137.604 320.941 137.07 320.6C136.548 320.259 136.137 319.779 135.838 319.16C135.55 318.541 135.406 317.832 135.406 317.032C135.406 316.221 135.55 315.512 135.838 314.904C136.137 314.296 136.548 313.827 137.07 313.496C137.593 313.165 138.196 313 138.878 313C139.465 313 139.977 313.128 140.414 313.384C140.862 313.629 141.204 313.981 141.438 314.44V309.72H143.054ZM139.262 319.832C139.966 319.832 140.505 319.592 140.878 319.112C141.262 318.632 141.454 317.949 141.454 317.064C141.454 316.179 141.262 315.496 140.878 315.016C140.505 314.536 139.966 314.296 139.262 314.296C138.558 314.296 138.009 314.536 137.614 315.016C137.23 315.485 137.038 316.157 137.038 317.032C137.038 317.907 137.236 318.595 137.63 319.096C138.025 319.587 138.569 319.832 139.262 319.832ZM151.996 317.368H146.476C146.593 319.021 147.414 319.848 148.94 319.848C149.836 319.848 150.646 319.555 151.372 318.968L151.868 320.104C151.505 320.413 151.057 320.659 150.524 320.84C149.99 321.021 149.446 321.112 148.891 321.112C147.644 321.112 146.657 320.755 145.932 320.04C145.217 319.325 144.86 318.339 144.86 317.08C144.86 316.28 145.014 315.571 145.324 314.952C145.644 314.333 146.086 313.853 146.652 313.512C147.228 313.171 147.878 313 148.604 313C149.66 313 150.486 313.341 151.084 314.024C151.692 314.707 151.996 315.651 151.996 316.856V317.368ZM148.636 314.184C148.017 314.184 147.521 314.381 147.148 314.776C146.785 315.16 146.566 315.715 146.492 316.44H150.604C150.572 315.715 150.385 315.16 150.044 314.776C149.713 314.381 149.244 314.184 148.636 314.184ZM161.259 313C162.304 313 163.078 313.261 163.579 313.784C164.091 314.307 164.347 315.101 164.347 316.168V321H162.795V319.704C162.592 320.163 162.288 320.515 161.883 320.76C161.488 320.995 161.024 321.112 160.491 321.112C159.979 321.112 159.51 321.011 159.083 320.808C158.656 320.595 158.32 320.301 158.075 319.928C157.84 319.555 157.723 319.139 157.723 318.68C157.723 318.115 157.867 317.672 158.155 317.352C158.454 317.021 158.939 316.787 159.611 316.648C160.294 316.509 161.227 316.44 162.411 316.44H162.779V315.976C162.779 315.379 162.651 314.947 162.395 314.68C162.15 314.413 161.744 314.28 161.179 314.28C160.294 314.28 159.408 314.552 158.523 315.096L158.043 313.96C158.459 313.672 158.96 313.443 159.547 313.272C160.144 313.091 160.715 313 161.259 313ZM160.779 319.912C161.366 319.912 161.846 319.715 162.219 319.32C162.592 318.915 162.779 318.397 162.779 317.768V317.352H162.491C161.659 317.352 161.019 317.389 160.571 317.464C160.123 317.539 159.803 317.667 159.611 317.848C159.419 318.019 159.323 318.269 159.323 318.6C159.323 318.973 159.456 319.288 159.723 319.544C160 319.789 160.352 319.912 160.779 319.912ZM170.766 313C172.632 313 173.566 314.051 173.566 316.152V321H171.95V316.232C171.95 315.571 171.816 315.085 171.55 314.776C171.294 314.467 170.888 314.312 170.334 314.312C169.683 314.312 169.16 314.515 168.766 314.92C168.371 315.325 168.174 315.869 168.174 316.552V321H166.558V313.192H168.142V314.44C168.398 313.971 168.755 313.613 169.214 313.368C169.672 313.123 170.19 313 170.766 313ZM181.312 313.208H182.928L178.272 323.88H176.64L178 320.808L174.72 313.208H176.416L178.848 319.176L181.312 313.208ZM188.5 321V309.72H190.148V319.624H195.62V321H188.5ZM203.714 317.368H198.194C198.312 319.021 199.133 319.848 200.658 319.848C201.554 319.848 202.365 319.555 203.09 318.968L203.586 320.104C203.224 320.413 202.776 320.659 202.242 320.84C201.709 321.021 201.165 321.112 200.61 321.112C199.362 321.112 198.376 320.755 197.65 320.04C196.936 319.325 196.578 318.339 196.578 317.08C196.578 316.28 196.733 315.571 197.042 314.952C197.362 314.333 197.805 313.853 198.37 313.512C198.946 313.171 199.597 313 200.322 313C201.378 313 202.205 313.341 202.802 314.024C203.41 314.707 203.714 315.651 203.714 316.856V317.368ZM200.354 314.184C199.736 314.184 199.24 314.381 198.866 314.776C198.504 315.16 198.285 315.715 198.21 316.44H202.322C202.29 315.715 202.104 315.16 201.762 314.776C201.432 314.381 200.962 314.184 200.354 314.184ZM208.759 313C209.804 313 210.578 313.261 211.079 313.784C211.591 314.307 211.847 315.101 211.847 316.168V321H210.295V319.704C210.092 320.163 209.788 320.515 209.383 320.76C208.988 320.995 208.524 321.112 207.991 321.112C207.479 321.112 207.01 321.011 206.583 320.808C206.156 320.595 205.82 320.301 205.575 319.928C205.34 319.555 205.223 319.139 205.223 318.68C205.223 318.115 205.367 317.672 205.655 317.352C205.954 317.021 206.439 316.787 207.111 316.648C207.794 316.509 208.727 316.44 209.911 316.44H210.279V315.976C210.279 315.379 210.151 314.947 209.895 314.68C209.65 314.413 209.244 314.28 208.679 314.28C207.794 314.28 206.908 314.552 206.023 315.096L205.543 313.96C205.959 313.672 206.46 313.443 207.047 313.272C207.644 313.091 208.215 313 208.759 313ZM208.279 319.912C208.866 319.912 209.346 319.715 209.719 319.32C210.092 318.915 210.279 318.397 210.279 317.768V317.352H209.991C209.159 317.352 208.519 317.389 208.071 317.464C207.623 317.539 207.303 317.667 207.111 317.848C206.919 318.019 206.823 318.269 206.823 318.6C206.823 318.973 206.956 319.288 207.223 319.544C207.5 319.789 207.852 319.912 208.279 319.912ZM219.594 313.208H221.21L217.818 321H216.362L213.002 313.208H214.698L217.13 319.176L219.594 313.208ZM228.949 317.368H223.429C223.546 319.021 224.367 319.848 225.893 319.848C226.789 319.848 227.599 319.555 228.325 318.968L228.821 320.104C228.458 320.413 228.01 320.659 227.477 320.84C226.943 321.021 226.399 321.112 225.845 321.112C224.597 321.112 223.61 320.755 222.885 320.04C222.17 319.325 221.813 318.339 221.813 317.08C221.813 316.28 221.967 315.571 222.277 314.952C222.597 314.333 223.039 313.853 223.605 313.512C224.181 313.171 224.831 313 225.557 313C226.613 313 227.439 313.341 228.037 314.024C228.645 314.707 228.949 315.651 228.949 316.856V317.368ZM225.589 314.184C224.97 314.184 224.474 314.381 224.101 314.776C223.738 315.16 223.519 315.715 223.445 316.44H227.557C227.525 315.715 227.338 315.16 226.997 314.776C226.666 314.381 226.197 314.184 225.589 314.184ZM239.7 314.36L238.724 314.456C237.956 314.531 237.401 314.765 237.06 315.16C236.729 315.555 236.564 316.056 236.564 316.664V321H234.948V313.192H236.516V314.552C236.932 313.635 237.78 313.128 239.06 313.032L239.588 313L239.7 314.36ZM247.339 317.368H241.819C241.937 319.021 242.758 319.848 244.283 319.848C245.179 319.848 245.99 319.555 246.715 318.968L247.211 320.104C246.849 320.413 246.401 320.659 245.867 320.84C245.334 321.021 244.79 321.112 244.235 321.112C242.987 321.112 242.001 320.755 241.275 320.04C240.561 319.325 240.203 318.339 240.203 317.08C240.203 316.28 240.358 315.571 240.667 314.952C240.987 314.333 241.43 313.853 241.995 313.512C242.571 313.171 243.222 313 243.947 313C245.003 313 245.83 313.341 246.427 314.024C247.035 314.707 247.339 315.651 247.339 316.856V317.368ZM243.979 314.184C243.361 314.184 242.865 314.381 242.491 314.776C242.129 315.16 241.91 315.715 241.835 316.44H245.947C245.915 315.715 245.729 315.16 245.387 314.776C245.057 314.381 244.587 314.184 243.979 314.184ZM256.32 313.192V323.88H254.704V319.688C254.469 320.147 254.128 320.499 253.68 320.744C253.243 320.989 252.731 321.112 252.144 321.112C251.461 321.112 250.853 320.947 250.32 320.616C249.797 320.285 249.392 319.816 249.104 319.208C248.816 318.6 248.672 317.896 248.672 317.096C248.672 316.285 248.816 315.571 249.104 314.952C249.403 314.333 249.813 313.853 250.336 313.512C250.869 313.171 251.472 313 252.144 313C252.731 313 253.248 313.128 253.696 313.384C254.144 313.64 254.485 314.003 254.72 314.472V313.192H256.32ZM252.528 319.832C253.232 319.832 253.771 319.592 254.144 319.112C254.528 318.632 254.72 317.949 254.72 317.064C254.72 316.179 254.528 315.496 254.144 315.016C253.771 314.536 253.232 314.296 252.528 314.296C251.835 314.296 251.291 314.547 250.896 315.048C250.501 315.539 250.304 316.221 250.304 317.096C250.304 317.971 250.496 318.648 250.88 319.128C251.275 319.597 251.824 319.832 252.528 319.832ZM265.421 313.192V321H263.853V319.736C263.608 320.184 263.266 320.525 262.829 320.76C262.402 320.995 261.922 321.112 261.389 321.112C259.49 321.112 258.541 320.067 258.541 317.976V313.192H260.157V317.96C260.157 318.589 260.285 319.053 260.541 319.352C260.797 319.651 261.192 319.8 261.725 319.8C262.354 319.8 262.856 319.597 263.229 319.192C263.613 318.787 263.805 318.248 263.805 317.576V313.192H265.421ZM274.371 317.368H268.851C268.968 319.021 269.789 319.848 271.315 319.848C272.211 319.848 273.021 319.555 273.747 318.968L274.243 320.104C273.88 320.413 273.432 320.659 272.899 320.84C272.365 321.021 271.821 321.112 271.266 321.112C270.019 321.112 269.032 320.755 268.307 320.04C267.592 319.325 267.235 318.339 267.235 317.08C267.235 316.28 267.389 315.571 267.699 314.952C268.019 314.333 268.461 313.853 269.027 313.512C269.603 313.171 270.253 313 270.979 313C272.035 313 272.861 313.341 273.459 314.024C274.067 314.707 274.371 315.651 274.371 316.856V317.368ZM271.011 314.184C270.392 314.184 269.896 314.381 269.523 314.776C269.16 315.16 268.941 315.715 268.867 316.44H272.979C272.947 315.715 272.76 315.16 272.419 314.776C272.088 314.381 271.619 314.184 271.011 314.184ZM278.903 321.112C277.549 321.112 276.466 320.781 275.655 320.12L276.151 318.952C276.951 319.571 277.885 319.88 278.951 319.88C279.474 319.88 279.874 319.795 280.151 319.624C280.429 319.443 280.567 319.192 280.567 318.872C280.567 318.595 280.471 318.376 280.279 318.216C280.098 318.056 279.778 317.923 279.319 317.816L278.023 317.528C277.33 317.368 276.807 317.107 276.455 316.744C276.103 316.381 275.927 315.923 275.927 315.368C275.927 314.664 276.21 314.093 276.775 313.656C277.351 313.219 278.103 313 279.031 313C279.586 313 280.114 313.091 280.615 313.272C281.117 313.443 281.549 313.688 281.911 314.008L281.415 315.144C280.647 314.536 279.853 314.232 279.031 314.232C278.541 314.232 278.151 314.328 277.863 314.52C277.586 314.712 277.447 314.973 277.447 315.304C277.447 315.571 277.533 315.789 277.703 315.96C277.885 316.12 278.167 316.243 278.551 316.328L279.879 316.632C280.637 316.803 281.191 317.069 281.543 317.432C281.895 317.784 282.071 318.248 282.071 318.824C282.071 319.528 281.783 320.088 281.207 320.504C280.642 320.909 279.874 321.112 278.903 321.112ZM287.488 319.864C287.733 319.864 287.973 319.848 288.208 319.816L288.128 321.048C287.861 321.091 287.584 321.112 287.296 321.112C286.283 321.112 285.525 320.867 285.024 320.376C284.533 319.875 284.288 319.155 284.288 318.216V314.44H282.768V313.192H284.288V310.84H285.904V313.192H288.048V314.44H285.904V318.152C285.904 319.293 286.432 319.864 287.488 319.864ZM289.522 319.096H291.426V321H289.522V319.096ZM302.881 321.128C301.793 321.128 300.844 320.893 300.033 320.424C299.233 319.955 298.615 319.288 298.177 318.424C297.751 317.549 297.537 316.525 297.537 315.352C297.537 314.179 297.751 313.16 298.177 312.296C298.615 311.421 299.233 310.755 300.033 310.296C300.844 309.827 301.793 309.592 302.881 309.592C303.649 309.592 304.364 309.715 305.025 309.96C305.687 310.195 306.247 310.536 306.705 310.984L306.129 312.2C305.607 311.763 305.084 311.448 304.561 311.256C304.049 311.064 303.495 310.968 302.897 310.968C301.724 310.968 300.817 311.347 300.177 312.104C299.548 312.861 299.233 313.944 299.233 315.352C299.233 316.76 299.548 317.848 300.177 318.616C300.817 319.373 301.724 319.752 302.897 319.752C303.495 319.752 304.049 319.656 304.561 319.464C305.084 319.272 305.607 318.957 306.129 318.52L306.705 319.736C306.247 320.184 305.687 320.531 305.025 320.776C304.364 321.011 303.649 321.128 302.881 321.128ZM308.558 321V309.72H310.174V321H308.558ZM312.433 321V313.192H314.049V321H312.433ZM312.321 309.704H314.177V311.384H312.321V309.704ZM319.732 321.112C318.942 321.112 318.254 320.947 317.668 320.616C317.092 320.285 316.644 319.821 316.324 319.224C316.014 318.616 315.86 317.907 315.86 317.096C315.86 316.285 316.02 315.571 316.34 314.952C316.67 314.333 317.129 313.853 317.716 313.512C318.313 313.171 319.006 313 319.796 313C320.34 313 320.862 313.091 321.364 313.272C321.876 313.453 322.292 313.699 322.612 314.008L322.116 315.16C321.412 314.584 320.681 314.296 319.924 314.296C319.177 314.296 318.59 314.541 318.164 315.032C317.748 315.512 317.539 316.195 317.539 317.08C317.539 317.955 317.748 318.632 318.164 319.112C318.58 319.581 319.166 319.816 319.924 319.816C320.681 319.816 321.412 319.528 322.116 318.952L322.612 320.12C322.27 320.429 321.844 320.675 321.332 320.856C320.82 321.027 320.286 321.112 319.732 321.112ZM331.402 321H329.354L325.658 317.32V321H324.042V309.72H325.658V316.712L329.082 313.208H331.082L327.386 316.952L331.402 321ZM339.918 321.112C339.15 321.112 338.473 320.947 337.886 320.616C337.31 320.285 336.862 319.816 336.542 319.208C336.233 318.589 336.078 317.875 336.078 317.064C336.078 316.243 336.233 315.528 336.542 314.92C336.862 314.301 337.31 313.827 337.886 313.496C338.473 313.165 339.15 313 339.918 313C340.686 313 341.358 313.165 341.934 313.496C342.521 313.827 342.969 314.301 343.278 314.92C343.598 315.528 343.758 316.243 343.758 317.064C343.758 317.875 343.598 318.589 343.278 319.208C342.969 319.816 342.521 320.285 341.934 320.616C341.358 320.947 340.686 321.112 339.918 321.112ZM339.918 319.832C340.633 319.832 341.177 319.597 341.55 319.128C341.934 318.659 342.126 317.971 342.126 317.064C342.126 316.168 341.934 315.485 341.55 315.016C341.166 314.536 340.622 314.296 339.918 314.296C339.214 314.296 338.67 314.536 338.286 315.016C337.902 315.485 337.71 316.168 337.71 317.064C337.71 317.971 337.897 318.659 338.27 319.128C338.654 319.597 339.204 319.832 339.918 319.832ZM349.766 313C351.632 313 352.566 314.051 352.566 316.152V321H350.95V316.232C350.95 315.571 350.816 315.085 350.55 314.776C350.294 314.467 349.888 314.312 349.334 314.312C348.683 314.312 348.16 314.515 347.766 314.92C347.371 315.325 347.174 315.869 347.174 316.552V321H345.558V313.192H347.142V314.44C347.398 313.971 347.755 313.613 348.214 313.368C348.672 313.123 349.19 313 349.766 313ZM362.691 319.864C362.936 319.864 363.176 319.848 363.411 319.816L363.331 321.048C363.064 321.091 362.787 321.112 362.499 321.112C361.486 321.112 360.728 320.867 360.227 320.376C359.736 319.875 359.491 319.155 359.491 318.216V314.44H357.971V313.192H359.491V310.84H361.107V313.192H363.251V314.44H361.107V318.152C361.107 319.293 361.635 319.864 362.691 319.864ZM368.844 313C370.71 313 371.644 314.051 371.644 316.152V321H370.028V316.232C370.028 315.571 369.894 315.085 369.628 314.776C369.372 314.467 368.966 314.312 368.412 314.312C367.761 314.312 367.238 314.515 366.844 314.92C366.449 315.325 366.252 315.869 366.252 316.552V321H364.636V309.72H366.252V314.376C366.518 313.928 366.876 313.587 367.324 313.352C367.772 313.117 368.278 313 368.844 313ZM380.542 317.368H375.022C375.14 319.021 375.961 319.848 377.486 319.848C378.382 319.848 379.193 319.555 379.918 318.968L380.414 320.104C380.052 320.413 379.604 320.659 379.07 320.84C378.537 321.021 377.993 321.112 377.438 321.112C376.19 321.112 375.204 320.755 374.478 320.04C373.764 319.325 373.406 318.339 373.406 317.08C373.406 316.28 373.561 315.571 373.87 314.952C374.19 314.333 374.633 313.853 375.198 313.512C375.774 313.171 376.425 313 377.15 313C378.206 313 379.033 313.341 379.63 314.024C380.238 314.707 380.542 315.651 380.542 316.856V317.368ZM377.182 314.184C376.564 314.184 376.068 314.381 375.694 314.776C375.332 315.16 375.113 315.715 375.038 316.44H379.15C379.118 315.715 378.932 315.16 378.59 314.776C378.26 314.381 377.79 314.184 377.182 314.184ZM394.446 309.72H395.998V321H394.734L388.286 312.488V321H386.734V309.72H387.982L394.446 318.248V309.72ZM405.121 317.368H399.601C399.718 319.021 400.539 319.848 402.065 319.848C402.961 319.848 403.771 319.555 404.497 318.968L404.993 320.104C404.63 320.413 404.182 320.659 403.649 320.84C403.115 321.021 402.571 321.112 402.016 321.112C400.769 321.112 399.782 320.755 399.057 320.04C398.342 319.325 397.985 318.339 397.985 317.08C397.985 316.28 398.139 315.571 398.449 314.952C398.769 314.333 399.211 313.853 399.777 313.512C400.353 313.171 401.003 313 401.729 313C402.785 313 403.611 313.341 404.209 314.024C404.817 314.707 405.121 315.651 405.121 316.856V317.368ZM401.761 314.184C401.142 314.184 400.646 314.381 400.273 314.776C399.91 315.16 399.691 315.715 399.617 316.44H403.729C403.697 315.715 403.51 315.16 403.169 314.776C402.838 314.381 402.369 314.184 401.761 314.184ZM417.368 313.192H418.968L415.976 321H414.52L412.456 315.416L410.392 321H408.92L405.944 313.192H407.624L409.736 319.064L411.864 313.192H413.128L415.256 319.096L417.368 313.192ZM433.917 321H432.093L430.173 317.384C429.96 317 429.704 316.733 429.405 316.584C429.117 316.424 428.733 316.344 428.253 316.344H426.397V321H424.765V309.72H429.565C430.813 309.72 431.762 309.997 432.413 310.552C433.074 311.107 433.405 311.917 433.405 312.984C433.405 313.848 433.16 314.557 432.669 315.112C432.189 315.667 431.501 316.019 430.605 316.168C431.16 316.339 431.618 316.755 431.981 317.416L433.917 321ZM429.373 315.016C430.205 315.016 430.818 314.856 431.213 314.536C431.618 314.205 431.821 313.699 431.821 313.016C431.821 312.333 431.624 311.837 431.229 311.528C430.834 311.208 430.216 311.048 429.373 311.048H426.381V315.016H429.373ZM442.308 317.368H436.788C436.905 319.021 437.727 319.848 439.252 319.848C440.148 319.848 440.959 319.555 441.684 318.968L442.18 320.104C441.817 320.413 441.369 320.659 440.836 320.84C440.303 321.021 439.759 321.112 439.204 321.112C437.956 321.112 436.969 320.755 436.244 320.04C435.529 319.325 435.172 318.339 435.172 317.08C435.172 316.28 435.327 315.571 435.636 314.952C435.956 314.333 436.399 313.853 436.964 313.512C437.54 313.171 438.191 313 438.916 313C439.972 313 440.799 313.341 441.396 314.024C442.004 314.707 442.308 315.651 442.308 316.856V317.368ZM438.948 314.184C438.329 314.184 437.833 314.381 437.46 314.776C437.097 315.16 436.879 315.715 436.804 316.44H440.916C440.884 315.715 440.697 315.16 440.356 314.776C440.025 314.381 439.556 314.184 438.948 314.184ZM451.289 313.192V323.88H449.673V319.688C449.438 320.147 449.097 320.499 448.649 320.744C448.211 320.989 447.699 321.112 447.113 321.112C446.43 321.112 445.822 320.947 445.289 320.616C444.766 320.285 444.361 319.816 444.073 319.208C443.785 318.6 443.641 317.896 443.641 317.096C443.641 316.285 443.785 315.571 444.073 314.952C444.371 314.333 444.782 313.853 445.305 313.512C445.838 313.171 446.441 313 447.113 313C447.699 313 448.217 313.128 448.665 313.384C449.113 313.64 449.454 314.003 449.689 314.472V313.192H451.289ZM447.497 319.832C448.201 319.832 448.739 319.592 449.113 319.112C449.497 318.632 449.689 317.949 449.689 317.064C449.689 316.179 449.497 315.496 449.113 315.016C448.739 314.536 448.201 314.296 447.497 314.296C446.803 314.296 446.259 314.547 445.865 315.048C445.47 315.539 445.273 316.221 445.273 317.096C445.273 317.971 445.465 318.648 445.849 319.128C446.243 319.597 446.793 319.832 447.497 319.832ZM460.39 313.192V321H458.822V319.736C458.577 320.184 458.235 320.525 457.798 320.76C457.371 320.995 456.891 321.112 456.358 321.112C454.459 321.112 453.51 320.067 453.51 317.976V313.192H455.126V317.96C455.126 318.589 455.254 319.053 455.51 319.352C455.766 319.651 456.161 319.8 456.694 319.8C457.323 319.8 457.825 319.597 458.198 319.192C458.582 318.787 458.774 318.248 458.774 317.576V313.192H460.39ZM469.339 317.368H463.819C463.937 319.021 464.758 319.848 466.283 319.848C467.179 319.848 467.99 319.555 468.715 318.968L469.211 320.104C468.849 320.413 468.401 320.659 467.867 320.84C467.334 321.021 466.79 321.112 466.235 321.112C464.987 321.112 464.001 320.755 463.275 320.04C462.561 319.325 462.203 318.339 462.203 317.08C462.203 316.28 462.358 315.571 462.667 314.952C462.987 314.333 463.43 313.853 463.995 313.512C464.571 313.171 465.222 313 465.947 313C467.003 313 467.83 313.341 468.427 314.024C469.035 314.707 469.339 315.651 469.339 316.856V317.368ZM465.979 314.184C465.361 314.184 464.865 314.381 464.491 314.776C464.129 315.16 463.91 315.715 463.835 316.44H467.947C467.915 315.715 467.729 315.16 467.387 314.776C467.057 314.381 466.587 314.184 465.979 314.184ZM473.872 321.112C472.517 321.112 471.435 320.781 470.624 320.12L471.12 318.952C471.92 319.571 472.853 319.88 473.92 319.88C474.443 319.88 474.843 319.795 475.12 319.624C475.397 319.443 475.536 319.192 475.536 318.872C475.536 318.595 475.44 318.376 475.248 318.216C475.067 318.056 474.747 317.923 474.288 317.816L472.992 317.528C472.299 317.368 471.776 317.107 471.424 316.744C471.072 316.381 470.896 315.923 470.896 315.368C470.896 314.664 471.179 314.093 471.744 313.656C472.32 313.219 473.072 313 474 313C474.555 313 475.083 313.091 475.584 313.272C476.085 313.443 476.517 313.688 476.88 314.008L476.384 315.144C475.616 314.536 474.821 314.232 474 314.232C473.509 314.232 473.12 314.328 472.832 314.52C472.555 314.712 472.416 314.973 472.416 315.304C472.416 315.571 472.501 315.789 472.672 315.96C472.853 316.12 473.136 316.243 473.52 316.328L474.848 316.632C475.605 316.803 476.16 317.069 476.512 317.432C476.864 317.784 477.04 318.248 477.04 318.824C477.04 319.528 476.752 320.088 476.176 320.504C475.611 320.909 474.843 321.112 473.872 321.112ZM482.457 319.864C482.702 319.864 482.942 319.848 483.177 319.816L483.097 321.048C482.83 321.091 482.553 321.112 482.265 321.112C481.251 321.112 480.494 320.867 479.993 320.376C479.502 319.875 479.257 319.155 479.257 318.216V314.44H477.737V313.192H479.257V310.84H480.873V313.192H483.017V314.44H480.873V318.152C480.873 319.293 481.401 319.864 482.457 319.864ZM142.601 335C143.284 335 143.886 335.165 144.409 335.496C144.932 335.827 145.337 336.296 145.625 336.904C145.924 337.512 146.073 338.221 146.073 339.032C146.073 339.832 145.924 340.541 145.625 341.16C145.337 341.779 144.926 342.259 144.393 342.6C143.87 342.941 143.273 343.112 142.601 343.112C142.014 343.112 141.497 342.989 141.049 342.744C140.601 342.488 140.26 342.125 140.025 341.656V343H138.409V331.72H140.025V336.472C140.26 336.003 140.601 335.64 141.049 335.384C141.497 335.128 142.014 335 142.601 335ZM142.217 341.832C142.91 341.832 143.449 341.587 143.833 341.096C144.228 340.605 144.425 339.917 144.425 339.032C144.425 338.157 144.233 337.485 143.849 337.016C143.465 336.536 142.921 336.296 142.217 336.296C141.513 336.296 140.969 336.536 140.585 337.016C140.212 337.496 140.025 338.179 140.025 339.064C140.025 339.949 140.212 340.632 140.585 341.112C140.969 341.592 141.513 341.832 142.217 341.832ZM154.71 335.192V343H153.142V341.736C152.897 342.184 152.556 342.525 152.118 342.76C151.692 342.995 151.212 343.112 150.678 343.112C148.78 343.112 147.83 342.067 147.83 339.976V335.192H149.446V339.96C149.446 340.589 149.574 341.053 149.83 341.352C150.086 341.651 150.481 341.8 151.014 341.8C151.644 341.8 152.145 341.597 152.518 341.192C152.902 340.787 153.094 340.248 153.094 339.576V335.192H154.71ZM160.668 341.864C160.913 341.864 161.153 341.848 161.388 341.816L161.308 343.048C161.041 343.091 160.764 343.112 160.476 343.112C159.462 343.112 158.705 342.867 158.204 342.376C157.713 341.875 157.468 341.155 157.468 340.216V336.44H155.948V335.192H157.468V332.84H159.084V335.192H161.228V336.44H159.084V340.152C159.084 341.293 159.612 341.864 160.668 341.864ZM166.277 341.864C166.522 341.864 166.762 341.848 166.997 341.816L166.917 343.048C166.65 343.091 166.373 343.112 166.085 343.112C165.072 343.112 164.314 342.867 163.813 342.376C163.322 341.875 163.077 341.155 163.077 340.216V336.44H161.557V335.192H163.077V332.84H164.693V335.192H166.837V336.44H164.693V340.152C164.693 341.293 165.221 341.864 166.277 341.864ZM171.614 343.112C170.846 343.112 170.168 342.947 169.582 342.616C169.006 342.285 168.558 341.816 168.238 341.208C167.928 340.589 167.774 339.875 167.774 339.064C167.774 338.243 167.928 337.528 168.238 336.92C168.558 336.301 169.006 335.827 169.582 335.496C170.168 335.165 170.846 335 171.614 335C172.382 335 173.054 335.165 173.63 335.496C174.216 335.827 174.664 336.301 174.974 336.92C175.294 337.528 175.454 338.243 175.454 339.064C175.454 339.875 175.294 340.589 174.974 341.208C174.664 341.816 174.216 342.285 173.63 342.616C173.054 342.947 172.382 343.112 171.614 343.112ZM171.614 341.832C172.328 341.832 172.872 341.597 173.246 341.128C173.63 340.659 173.822 339.971 173.822 339.064C173.822 338.168 173.63 337.485 173.246 337.016C172.862 336.536 172.318 336.296 171.614 336.296C170.91 336.296 170.366 336.536 169.982 337.016C169.598 337.485 169.406 338.168 169.406 339.064C169.406 339.971 169.592 340.659 169.966 341.128C170.35 341.597 170.899 341.832 171.614 341.832ZM181.461 335C183.327 335 184.261 336.051 184.261 338.152V343H182.645V338.232C182.645 337.571 182.511 337.085 182.245 336.776C181.989 336.467 181.583 336.312 181.029 336.312C180.378 336.312 179.855 336.515 179.461 336.92C179.066 337.325 178.869 337.869 178.869 338.552V343H177.253V335.192H178.837V336.44C179.093 335.971 179.45 335.613 179.909 335.368C180.367 335.123 180.885 335 181.461 335ZM194.386 341.864C194.632 341.864 194.872 341.848 195.106 341.816L195.026 343.048C194.76 343.091 194.482 343.112 194.194 343.112C193.181 343.112 192.424 342.867 191.922 342.376C191.432 341.875 191.186 341.155 191.186 340.216V336.44H189.666V335.192H191.186V332.84H192.802V335.192H194.946V336.44H192.802V340.152C192.802 341.293 193.33 341.864 194.386 341.864ZM199.723 343.112C198.955 343.112 198.278 342.947 197.691 342.616C197.115 342.285 196.667 341.816 196.347 341.208C196.038 340.589 195.883 339.875 195.883 339.064C195.883 338.243 196.038 337.528 196.347 336.92C196.667 336.301 197.115 335.827 197.691 335.496C198.278 335.165 198.955 335 199.723 335C200.491 335 201.163 335.165 201.739 335.496C202.326 335.827 202.774 336.301 203.083 336.92C203.403 337.528 203.563 338.243 203.563 339.064C203.563 339.875 203.403 340.589 203.083 341.208C202.774 341.816 202.326 342.285 201.739 342.616C201.163 342.947 200.491 343.112 199.723 343.112ZM199.723 341.832C200.438 341.832 200.982 341.597 201.355 341.128C201.739 340.659 201.931 339.971 201.931 339.064C201.931 338.168 201.739 337.485 201.355 337.016C200.971 336.536 200.427 336.296 199.723 336.296C199.019 336.296 198.475 336.536 198.091 337.016C197.707 337.485 197.515 338.168 197.515 339.064C197.515 339.971 197.702 340.659 198.075 341.128C198.459 341.597 199.008 341.832 199.723 341.832ZM218.541 335C220.29 335 221.165 336.051 221.165 338.152V343H219.549V338.216C219.549 337.555 219.432 337.075 219.197 336.776C218.973 336.467 218.605 336.312 218.093 336.312C217.506 336.312 217.042 336.515 216.701 336.92C216.36 337.325 216.189 337.88 216.189 338.584V343H214.573V338.216C214.573 337.555 214.456 337.075 214.221 336.776C213.986 336.467 213.618 336.312 213.117 336.312C212.52 336.312 212.05 336.515 211.709 336.92C211.368 337.325 211.197 337.88 211.197 338.584V343H209.581V335.192H211.165V336.376C211.41 335.939 211.741 335.603 212.157 335.368C212.573 335.123 213.048 335 213.581 335C214.786 335 215.57 335.501 215.933 336.504C216.178 336.035 216.53 335.667 216.989 335.4C217.448 335.133 217.965 335 218.541 335ZM226.642 335C227.687 335 228.46 335.261 228.962 335.784C229.474 336.307 229.73 337.101 229.73 338.168V343H228.178V341.704C227.975 342.163 227.671 342.515 227.266 342.76C226.871 342.995 226.407 343.112 225.874 343.112C225.362 343.112 224.892 343.011 224.466 342.808C224.039 342.595 223.703 342.301 223.458 341.928C223.223 341.555 223.106 341.139 223.106 340.68C223.106 340.115 223.25 339.672 223.538 339.352C223.836 339.021 224.322 338.787 224.994 338.648C225.676 338.509 226.61 338.44 227.794 338.44H228.162V337.976C228.162 337.379 228.034 336.947 227.778 336.68C227.532 336.413 227.127 336.28 226.562 336.28C225.676 336.28 224.791 336.552 223.906 337.096L223.426 335.96C223.842 335.672 224.343 335.443 224.93 335.272C225.527 335.091 226.098 335 226.642 335ZM226.162 341.912C226.748 341.912 227.228 341.715 227.602 341.32C227.975 340.915 228.162 340.397 228.162 339.768V339.352H227.874C227.042 339.352 226.402 339.389 225.954 339.464C225.506 339.539 225.186 339.667 224.994 339.848C224.802 340.019 224.706 340.269 224.706 340.6C224.706 340.973 224.839 341.288 225.106 341.544C225.383 341.789 225.735 341.912 226.162 341.912ZM239.3 343H237.252L233.556 339.32V343H231.94V331.72H233.556V338.712L236.98 335.208H238.98L235.284 338.952L239.3 343ZM246.769 339.368H241.249C241.366 341.021 242.188 341.848 243.713 341.848C244.609 341.848 245.42 341.555 246.145 340.968L246.641 342.104C246.278 342.413 245.83 342.659 245.297 342.84C244.764 343.021 244.22 343.112 243.665 343.112C242.417 343.112 241.43 342.755 240.705 342.04C239.99 341.325 239.633 340.339 239.633 339.08C239.633 338.28 239.788 337.571 240.097 336.952C240.417 336.333 240.86 335.853 241.425 335.512C242.001 335.171 242.652 335 243.377 335C244.433 335 245.26 335.341 245.857 336.024C246.465 336.707 246.769 337.651 246.769 338.856V339.368ZM243.409 336.184C242.79 336.184 242.294 336.381 241.921 336.776C241.558 337.16 241.34 337.715 241.265 338.44H245.377C245.345 337.715 245.158 337.16 244.817 336.776C244.486 336.381 244.017 336.184 243.409 336.184ZM256.032 335C257.078 335 257.851 335.261 258.352 335.784C258.864 336.307 259.12 337.101 259.12 338.168V343H257.568V341.704C257.366 342.163 257.062 342.515 256.656 342.76C256.262 342.995 255.798 343.112 255.264 343.112C254.752 343.112 254.283 343.011 253.856 342.808C253.43 342.595 253.094 342.301 252.848 341.928C252.614 341.555 252.496 341.139 252.496 340.68C252.496 340.115 252.64 339.672 252.928 339.352C253.227 339.021 253.712 338.787 254.384 338.648C255.067 338.509 256 338.44 257.184 338.44H257.552V337.976C257.552 337.379 257.424 336.947 257.168 336.68C256.923 336.413 256.518 336.28 255.952 336.28C255.067 336.28 254.182 336.552 253.296 337.096L252.816 335.96C253.232 335.672 253.734 335.443 254.32 335.272C254.918 335.091 255.488 335 256.032 335ZM255.552 341.912C256.139 341.912 256.619 341.715 256.992 341.32C257.366 340.915 257.552 340.397 257.552 339.768V339.352H257.264C256.432 339.352 255.792 339.389 255.344 339.464C254.896 339.539 254.576 339.667 254.384 339.848C254.192 340.019 254.096 340.269 254.096 340.6C254.096 340.973 254.23 341.288 254.496 341.544C254.774 341.789 255.126 341.912 255.552 341.912ZM265.55 343V331.72H267.166V343H265.55ZM276.113 339.368H270.593C270.71 341.021 271.531 341.848 273.057 341.848C273.953 341.848 274.763 341.555 275.489 340.968L275.985 342.104C275.622 342.413 275.174 342.659 274.641 342.84C274.107 343.021 273.563 343.112 273.009 343.112C271.761 343.112 270.774 342.755 270.049 342.04C269.334 341.325 268.977 340.339 268.977 339.08C268.977 338.28 269.131 337.571 269.441 336.952C269.761 336.333 270.203 335.853 270.769 335.512C271.345 335.171 271.995 335 272.721 335C273.777 335 274.603 335.341 275.201 336.024C275.809 336.707 276.113 337.651 276.113 338.856V339.368ZM272.753 336.184C272.134 336.184 271.638 336.381 271.265 336.776C270.902 337.16 270.683 337.715 270.609 338.44H274.721C274.689 337.715 274.502 337.16 274.161 336.776C273.83 336.381 273.361 336.184 272.753 336.184ZM281.157 335C282.203 335 282.976 335.261 283.477 335.784C283.989 336.307 284.245 337.101 284.245 338.168V343H282.693V341.704C282.491 342.163 282.187 342.515 281.781 342.76C281.387 342.995 280.923 343.112 280.389 343.112C279.877 343.112 279.408 343.011 278.981 342.808C278.555 342.595 278.219 342.301 277.973 341.928C277.739 341.555 277.621 341.139 277.621 340.68C277.621 340.115 277.765 339.672 278.053 339.352C278.352 339.021 278.837 338.787 279.509 338.648C280.192 338.509 281.125 338.44 282.309 338.44H282.677V337.976C282.677 337.379 282.549 336.947 282.293 336.68C282.048 336.413 281.643 336.28 281.077 336.28C280.192 336.28 279.307 336.552 278.421 337.096L277.941 335.96C278.357 335.672 278.859 335.443 279.445 335.272C280.043 335.091 280.613 335 281.157 335ZM280.677 341.912C281.264 341.912 281.744 341.715 282.117 341.32C282.491 340.915 282.677 340.397 282.677 339.768V339.352H282.389C281.557 339.352 280.917 339.389 280.469 339.464C280.021 339.539 279.701 339.667 279.509 339.848C279.317 340.019 279.221 340.269 279.221 340.6C279.221 340.973 279.355 341.288 279.621 341.544C279.899 341.789 280.251 341.912 280.677 341.912ZM291.992 335.208H293.608L290.216 343H288.76L285.4 335.208H287.096L289.528 341.176L291.992 335.208ZM301.347 339.368H295.827C295.944 341.021 296.766 341.848 298.291 341.848C299.187 341.848 299.998 341.555 300.723 340.968L301.219 342.104C300.856 342.413 300.408 342.659 299.875 342.84C299.342 343.021 298.798 343.112 298.243 343.112C296.995 343.112 296.008 342.755 295.283 342.04C294.568 341.325 294.211 340.339 294.211 339.08C294.211 338.28 294.366 337.571 294.675 336.952C294.995 336.333 295.438 335.853 296.003 335.512C296.579 335.171 297.23 335 297.955 335C299.011 335 299.838 335.341 300.435 336.024C301.043 336.707 301.347 337.651 301.347 338.856V339.368ZM297.987 336.184C297.368 336.184 296.872 336.381 296.499 336.776C296.136 337.16 295.918 337.715 295.843 338.44H299.955C299.923 337.715 299.736 337.16 299.395 336.776C299.064 336.381 298.595 336.184 297.987 336.184ZM312.099 336.36L311.123 336.456C310.355 336.531 309.8 336.765 309.459 337.16C309.128 337.555 308.963 338.056 308.963 338.664V343H307.347V335.192H308.915V336.552C309.331 335.635 310.179 335.128 311.459 335.032L311.987 335L312.099 336.36ZM319.738 339.368H314.218C314.335 341.021 315.156 341.848 316.682 341.848C317.578 341.848 318.388 341.555 319.114 340.968L319.61 342.104C319.247 342.413 318.799 342.659 318.266 342.84C317.732 343.021 317.188 343.112 316.634 343.112C315.386 343.112 314.399 342.755 313.674 342.04C312.959 341.325 312.602 340.339 312.602 339.08C312.602 338.28 312.756 337.571 313.066 336.952C313.386 336.333 313.828 335.853 314.394 335.512C314.97 335.171 315.62 335 316.346 335C317.402 335 318.228 335.341 318.826 336.024C319.434 336.707 319.738 337.651 319.738 338.856V339.368ZM316.378 336.184C315.759 336.184 315.263 336.381 314.89 336.776C314.527 337.16 314.308 337.715 314.234 338.44H318.346C318.314 337.715 318.127 337.16 317.786 336.776C317.455 336.381 316.986 336.184 316.378 336.184ZM328.718 335.192V345.88H327.102V341.688C326.868 342.147 326.526 342.499 326.078 342.744C325.641 342.989 325.129 343.112 324.542 343.112C323.86 343.112 323.252 342.947 322.718 342.616C322.196 342.285 321.79 341.816 321.502 341.208C321.214 340.6 321.07 339.896 321.07 339.096C321.07 338.285 321.214 337.571 321.502 336.952C321.801 336.333 322.212 335.853 322.734 335.512C323.268 335.171 323.87 335 324.542 335C325.129 335 325.646 335.128 326.094 335.384C326.542 335.64 326.884 336.003 327.118 336.472V335.192H328.718ZM324.926 341.832C325.63 341.832 326.169 341.592 326.542 341.112C326.926 340.632 327.118 339.949 327.118 339.064C327.118 338.179 326.926 337.496 326.542 337.016C326.169 336.536 325.63 336.296 324.926 336.296C324.233 336.296 323.689 336.547 323.294 337.048C322.9 337.539 322.702 338.221 322.702 339.096C322.702 339.971 322.894 340.648 323.278 341.128C323.673 341.597 324.222 341.832 324.926 341.832ZM337.82 335.192V343H336.252V341.736C336.006 342.184 335.665 342.525 335.228 342.76C334.801 342.995 334.321 343.112 333.788 343.112C331.889 343.112 330.94 342.067 330.94 339.976V335.192H332.556V339.96C332.556 340.589 332.684 341.053 332.94 341.352C333.196 341.651 333.59 341.8 334.124 341.8C334.753 341.8 335.254 341.597 335.628 341.192C336.012 340.787 336.204 340.248 336.204 339.576V335.192H337.82ZM346.769 339.368H341.249C341.366 341.021 342.188 341.848 343.713 341.848C344.609 341.848 345.42 341.555 346.145 340.968L346.641 342.104C346.278 342.413 345.83 342.659 345.297 342.84C344.764 343.021 344.22 343.112 343.665 343.112C342.417 343.112 341.43 342.755 340.705 342.04C339.99 341.325 339.633 340.339 339.633 339.08C339.633 338.28 339.788 337.571 340.097 336.952C340.417 336.333 340.86 335.853 341.425 335.512C342.001 335.171 342.652 335 343.377 335C344.433 335 345.26 335.341 345.857 336.024C346.465 336.707 346.769 337.651 346.769 338.856V339.368ZM343.409 336.184C342.79 336.184 342.294 336.381 341.921 336.776C341.558 337.16 341.34 337.715 341.265 338.44H345.377C345.345 337.715 345.158 337.16 344.817 336.776C344.486 336.381 344.017 336.184 343.409 336.184ZM351.302 343.112C349.947 343.112 348.864 342.781 348.054 342.12L348.55 340.952C349.35 341.571 350.283 341.88 351.35 341.88C351.872 341.88 352.272 341.795 352.55 341.624C352.827 341.443 352.966 341.192 352.966 340.872C352.966 340.595 352.87 340.376 352.678 340.216C352.496 340.056 352.176 339.923 351.718 339.816L350.422 339.528C349.728 339.368 349.206 339.107 348.854 338.744C348.502 338.381 348.326 337.923 348.326 337.368C348.326 336.664 348.608 336.093 349.174 335.656C349.75 335.219 350.502 335 351.43 335C351.984 335 352.512 335.091 353.014 335.272C353.515 335.443 353.947 335.688 354.31 336.008L353.814 337.144C353.046 336.536 352.251 336.232 351.43 336.232C350.939 336.232 350.55 336.328 350.262 336.52C349.984 336.712 349.846 336.973 349.846 337.304C349.846 337.571 349.931 337.789 350.102 337.96C350.283 338.12 350.566 338.243 350.95 338.328L352.278 338.632C353.035 338.803 353.59 339.069 353.942 339.432C354.294 339.784 354.47 340.248 354.47 340.824C354.47 341.528 354.182 342.088 353.606 342.504C353.04 342.909 352.272 343.112 351.302 343.112ZM359.886 341.864C360.132 341.864 360.372 341.848 360.606 341.816L360.526 343.048C360.26 343.091 359.982 343.112 359.694 343.112C358.681 343.112 357.924 342.867 357.422 342.376C356.932 341.875 356.686 341.155 356.686 340.216V336.44H355.166V335.192H356.686V332.84H358.302V335.192H360.446V336.44H358.302V340.152C358.302 341.293 358.83 341.864 359.886 341.864Z" fill="#525252"/>
<path d="M429 259.453C429 259.534 348.397 259.696 249 259.696C149.522 259.696 69 259.615 69 259.453C69 259.372 149.603 259.21 249 259.21C348.397 259.21 429 259.291 429 259.453Z" fill="#263238"/>
<path d="M197.954 158.193H172.842C171.303 158.193 170.088 156.978 170.088 155.439C170.088 153.9 171.303 152.685 172.842 152.685H197.954C199.494 152.685 200.709 153.9 200.709 155.439C200.79 156.897 199.494 158.193 197.954 158.193Z" fill="#263238"/>
<path d="M202.005 249.408H158.342C154.291 249.408 151.051 246.168 151.051 242.117V163.864C151.051 159.813 154.291 156.573 158.342 156.573H202.005C206.055 156.573 209.296 159.813 209.296 163.864V242.117C209.296 246.168 206.055 249.408 202.005 249.408Z" fill="#5591D7"/>
<path d="M215.857 249.408H172.113C168.062 249.408 164.822 246.168 164.822 242.117V163.864C164.822 159.813 168.062 156.573 172.113 156.573H215.776C219.827 156.573 223.067 159.813 223.067 163.864V242.117C223.067 246.168 219.827 249.408 215.857 249.408Z" fill="#5591D7"/>
<path d="M222.581 233.855C222.581 233.936 209.62 234.098 193.58 234.098C177.541 234.098 164.579 234.017 164.579 233.855C164.579 233.774 177.541 233.612 193.58 233.612C209.62 233.693 222.581 233.774 222.581 233.855Z" fill="#263238"/>
<path d="M222.581 221.136C222.581 221.217 209.62 221.379 193.58 221.379C177.541 221.379 164.579 221.298 164.579 221.136C164.579 221.055 177.541 220.893 193.58 220.893C209.62 220.893 222.581 220.974 222.581 221.136Z" fill="#263238"/>
<path d="M222.581 208.337C222.581 208.418 209.62 208.58 193.58 208.58C177.541 208.58 164.579 208.499 164.579 208.337C164.579 208.256 177.541 208.094 193.58 208.094C209.62 208.094 222.581 208.175 222.581 208.337Z" fill="#263238"/>
<path d="M222.581 195.538C222.581 195.619 209.62 195.781 193.58 195.781C177.541 195.781 164.579 195.7 164.579 195.538C164.579 195.376 177.541 195.295 193.58 195.295C209.62 195.295 222.581 195.457 222.581 195.538Z" fill="#263238"/>
<path d="M222.581 182.739C222.581 182.82 209.62 182.982 193.58 182.982C177.541 182.982 164.579 182.901 164.579 182.739C164.579 182.658 177.541 182.496 193.58 182.496C209.62 182.577 222.581 182.658 222.581 182.739Z" fill="#263238"/>
<path d="M222.581 169.939C222.581 170.02 209.62 170.182 193.58 170.182C177.541 170.182 164.579 170.101 164.579 169.939C164.579 169.858 177.541 169.696 193.58 169.696C209.62 169.777 222.581 169.858 222.581 169.939Z" fill="#263238"/>
<path d="M213.427 254.431C213.427 257.185 211.159 259.453 208.405 259.453C205.65 259.453 203.382 257.185 203.382 254.431C203.382 251.676 205.65 249.408 208.405 249.408C211.159 249.408 213.427 251.676 213.427 254.431Z" fill="#263238"/>
<path d="M216.91 254.431C216.91 257.185 214.642 259.453 211.888 259.453C209.134 259.453 206.865 257.185 206.865 254.431C206.865 251.676 209.134 249.408 211.888 249.408C214.723 249.408 216.91 251.676 216.91 254.431Z" fill="#455A64"/>
<path d="M173.49 254.431C173.49 257.185 171.222 259.453 168.467 259.453C165.713 259.453 163.445 257.185 163.445 254.431C163.445 251.676 165.713 249.408 168.467 249.408C171.222 249.408 173.49 251.676 173.49 254.431Z" fill="#263238"/>
<path d="M176.973 254.431C176.973 257.185 174.705 259.453 171.95 259.453C169.196 259.453 166.928 257.185 166.928 254.431C166.928 251.676 169.196 249.408 171.95 249.408C174.705 249.408 176.973 251.676 176.973 254.431Z" fill="#455A64"/>
<path d="M157.612 215.871C155.911 215.871 154.534 214.494 154.534 212.793V185.898C154.534 184.197 155.911 182.82 157.612 182.82C159.313 182.82 160.691 184.197 160.691 185.898V212.793C160.691 214.494 159.313 215.871 157.612 215.871Z" fill="#263238"/>
<path d="M158.828 248.598C158.828 248.598 158.747 248.517 158.666 248.436C158.504 248.355 158.342 248.193 158.099 247.95C157.694 247.464 156.964 246.816 156.397 245.763C155.101 243.657 154.372 240.092 154.372 235.718C154.534 227.05 154.858 215.061 155.182 201.856C155.587 188.652 155.911 176.663 156.154 167.995C156.235 165.808 156.235 163.864 156.64 162.163C157.045 160.461 157.775 159.084 158.585 158.193C159.395 157.302 160.286 156.816 160.934 156.654C161.582 156.411 161.906 156.411 161.906 156.411C161.906 156.411 161.582 156.492 161.015 156.735C160.448 156.978 159.557 157.464 158.828 158.355C158.018 159.246 157.288 160.542 156.964 162.244C156.559 163.945 156.559 165.889 156.559 168.076C156.316 176.744 156.073 188.733 155.668 201.937C155.263 215.142 154.939 227.131 154.696 235.799C154.615 240.092 155.344 243.657 156.559 245.763C157.613 247.788 158.828 248.517 158.828 248.598Z" fill="#263238"/>
<path d="M256.498 94.6018L245.4 101.812L244.428 112.991C244.428 112.991 247.668 114.53 252.448 110.155C257.227 105.781 263.465 97.0321 263.465 97.0321L256.498 94.6018Z" fill="#AA6550"/>
<path d="M256.012 99.2193L252.367 80.8304L242.727 84.6378L245.157 108.859L256.012 99.2193Z" fill="#AA6550"/>
<path d="M282.178 75.97C282.016 75.5649 281.692 75.3219 281.287 75.2409L274.32 73.8638C273.672 73.7827 273.105 73.9448 272.619 74.2688L251.638 90.7944L252.529 91.7665L259.982 94.0348L282.34 76.294L282.178 75.97Z" fill="#263238"/>
<path d="M276.588 77.1041C276.669 77.2661 276.993 77.3471 277.155 77.1851C277.398 77.0231 277.479 76.78 277.398 76.618C277.317 76.456 276.993 76.375 276.831 76.537C276.669 76.699 276.507 76.9421 276.588 77.1041Z" fill="white"/>
<path d="M282.34 76.294C282.34 76.294 281.854 76.294 280.963 76.132C279.991 75.97 278.776 75.7269 277.236 75.4839C276.426 75.3219 275.616 75.1599 274.644 74.9979C274.239 74.9169 273.753 74.9979 273.429 75.2409C273.024 75.5649 272.619 75.889 272.214 76.213C270.594 77.5091 268.731 78.9673 266.867 80.4254C263.06 83.4227 259.577 86.096 257.065 88.0402C255.85 88.9313 254.797 89.7414 254.068 90.3084C253.339 90.8755 252.934 91.1185 252.934 91.1185C252.934 91.1185 253.258 90.7945 253.987 90.2274C254.716 89.6603 255.688 88.8503 256.903 87.8782C259.415 85.853 262.817 83.1797 266.624 80.1824C268.569 78.7242 270.351 77.2661 271.971 75.97C272.376 75.6459 272.781 75.3219 273.186 74.9979C273.591 74.6738 274.239 74.5928 274.725 74.6738C275.616 74.8359 276.507 74.9979 277.236 75.1599C278.776 75.4839 279.991 75.7269 280.882 75.97C281.854 76.132 282.34 76.294 282.34 76.294Z" fill="#455A64"/>
<path d="M272.376 81.3975C272.376 81.3975 271.809 81.0735 270.918 82.6126C270.027 84.1518 267.434 88.4452 267.434 88.4452L264.923 85.772L260.873 84.9619C260.873 84.9619 259.739 85.4479 260.225 86.096C260.711 86.7441 262.979 88.0402 262.979 88.0402L263.87 91.2805L259.496 86.9871C259.496 86.9871 257.632 86.8251 257.794 88.0402C257.956 89.2553 260.306 93.7918 260.306 93.7918L257.794 92.7387L255.364 89.8224C255.364 89.8224 254.392 89.5793 254.473 90.4704C254.554 91.3615 256.741 95.4119 256.741 95.4119L259.982 98.6522C259.982 98.6522 262.169 99.2193 262.574 98.6522C262.979 98.0852 263.384 97.1941 263.384 97.1941C263.384 97.1941 264.599 97.2751 265.004 96.7891C265.409 96.303 265.571 95.4119 265.571 95.4119C265.571 95.4119 267.272 96.303 267.758 95.4119C268.325 94.5208 268.811 92.4956 268.893 91.6856C268.974 90.8755 272.295 84.1518 272.295 83.9088C272.376 83.4227 273.672 81.3165 272.376 81.3975Z" fill="#AA6550"/>
<path d="M262.817 98.4902C262.817 98.5712 262.412 98.5712 261.683 98.4902C261.035 98.4092 260.063 98.0852 259.172 97.5181C258.281 96.9511 257.552 96.222 257.147 95.655C256.742 95.0879 256.58 94.6829 256.661 94.6829C256.742 94.6019 257.633 96.06 259.415 97.1941C261.116 98.2472 262.817 98.4092 262.817 98.4902Z" fill="#EB996E"/>
<path d="M262.412 96.7891C262.331 96.8701 261.764 96.222 261.197 95.412C260.63 94.5209 260.387 93.7918 260.468 93.7108C260.549 93.6298 261.035 94.3589 261.521 95.1689C262.088 96.06 262.493 96.7081 262.412 96.7891Z" fill="#EB996E"/>
<path d="M265.571 94.1158C265.49 94.1968 264.923 93.6298 264.437 92.7387C263.951 91.8476 263.789 91.0375 263.87 91.0375C263.951 90.9565 264.356 91.6856 264.761 92.5766C265.247 93.3867 265.652 94.0348 265.571 94.1158Z" fill="#EB996E"/>
<path d="M268.65 92.1716C268.488 92.1716 268.407 91.2805 268.002 90.3084C267.678 89.3363 267.272 88.5262 267.353 88.4452C267.435 88.3642 268.083 89.0933 268.407 90.1464C268.812 91.1995 268.731 92.1716 268.65 92.1716Z" fill="#EB996E"/>
<path d="M219.721 7.76114C220.693 3.79174 224.338 0.632425 228.388 0.0653684C232.439 -0.42068 236.732 1.84755 238.676 5.41191C240.459 8.81425 240.459 13.3507 243.456 15.8619C245.481 17.5631 248.478 17.7251 250.504 19.4263C254.797 23.0717 252.286 31.2535 256.822 34.6558C253.987 36.924 250.666 38.5442 247.101 39.3543C246.858 38.1392 246.21 37.0051 245.319 36.114C246.048 38.1392 244.914 40.5694 243.213 41.8656C241.431 43.1617 239.243 43.6477 237.056 44.0528C231.872 45.0249 226.444 45.5109 221.26 44.3768C216.075 43.2427 211.134 40.2454 208.703 35.4659C208.055 34.2508 207.569 32.9547 206.597 32.0636C205.544 31.0915 204.005 30.7674 202.709 30.2004C199.063 28.5802 196.633 24.5298 196.795 20.5604C200.198 20.3174 202.547 17.0771 203.924 13.9178C205.301 10.7584 206.435 7.19408 209.27 5.24989C211.134 3.95376 213.645 3.54872 215.832 4.19679C218.019 4.84485 219.802 6.62703 220.612 8.73324" fill="#263238"/>
<path d="M211.62 15.2949L211.458 12.3786L228.712 8.57121C234.059 7.84213 239.972 13.0267 240.459 18.3732C241.026 24.2868 241.431 31.5775 240.864 36.033C239.729 45.0249 232.925 46.402 232.925 46.402L233.168 57.3381L213.402 56.609L211.62 15.2949Z" fill="#AA6550"/>
<path d="M238.109 25.0159C238.109 25.5829 237.704 26.15 237.056 26.231C236.408 26.312 235.922 25.826 235.841 25.2589C235.841 24.6918 236.246 24.1248 236.894 24.0438C237.461 23.9628 238.028 24.3678 238.109 25.0159Z" fill="#263238"/>
<path d="M238.676 22.1806C238.514 22.3426 237.623 21.6946 236.408 21.7756C235.193 21.7756 234.302 22.4236 234.14 22.3426C234.059 22.2616 234.221 22.0186 234.626 21.6946C235.031 21.3705 235.679 21.1275 236.408 21.0465C237.137 21.0465 237.866 21.2895 238.19 21.5326C238.595 21.8566 238.757 22.0996 238.676 22.1806Z" fill="#263238"/>
<path d="M226.606 25.5019C226.606 26.069 226.201 26.636 225.553 26.717C224.905 26.798 224.419 26.312 224.338 25.7449C224.338 25.1779 224.743 24.6108 225.391 24.5298C226.039 24.4488 226.525 24.9349 226.606 25.5019Z" fill="#263238"/>
<path d="M226.525 22.8286C226.363 22.9907 225.472 22.3426 224.257 22.4236C223.042 22.4236 222.151 23.0717 221.989 22.9907C221.908 22.9096 222.07 22.6666 222.475 22.3426C222.88 22.0186 223.528 21.7755 224.257 21.6945C224.986 21.6945 225.715 21.9375 226.039 22.1806C226.525 22.5046 226.606 22.7476 226.525 22.8286Z" fill="#263238"/>
<path d="M231.305 31.8206C231.305 31.7396 232.034 31.5775 233.33 31.4155C233.654 31.3345 233.978 31.3345 233.978 31.0915C234.059 30.8485 233.897 30.5244 233.735 30.2004C233.411 29.4713 233.087 28.6613 232.763 27.8512C231.386 24.4488 230.332 21.6946 230.495 21.6136C230.657 21.5326 231.872 24.2868 233.249 27.6082C233.573 28.4182 233.897 29.2283 234.221 29.9574C234.383 30.2814 234.545 30.6865 234.383 31.1725C234.302 31.4155 234.059 31.5776 233.897 31.6586C233.735 31.7396 233.492 31.7396 233.33 31.7396C232.115 31.9016 231.305 31.9016 231.305 31.8206Z" fill="#263238"/>
<path d="M232.925 46.402C232.925 46.402 226.606 46.9691 220.531 43.5667C220.531 43.5667 223.771 49.7233 233.006 48.5892L232.925 46.402Z" fill="#AA6550"/>
<path d="M230.9 34.8178C230.414 34.2508 229.685 33.9267 228.875 34.0888C228.307 34.1698 227.821 34.4128 227.497 34.8988C227.173 35.3849 227.173 35.952 227.416 36.357C227.74 36.843 228.47 36.924 229.037 36.681C229.604 36.519 230.09 36.114 230.576 35.7089C230.738 35.6279 230.819 35.4659 230.9 35.3039C231.062 35.1419 231.062 34.9799 230.9 34.8178Z" fill="#AA6550"/>
<path d="M227.74 32.7927C227.902 32.7927 227.983 34.0888 229.198 35.0609C230.332 35.952 231.791 35.79 231.791 35.952C231.791 36.033 231.466 36.195 230.899 36.276C230.332 36.276 229.441 36.114 228.712 35.6279C227.983 35.0609 227.659 34.3318 227.578 33.7648C227.497 33.1167 227.659 32.7927 227.74 32.7927Z" fill="#263238"/>
<path d="M226.768 19.3453C226.687 19.6693 225.391 19.5883 224.014 19.7503C222.556 19.9123 221.422 20.3984 221.179 20.0744C221.098 19.9123 221.26 19.5883 221.746 19.2643C222.232 18.9402 222.961 18.6162 223.771 18.4542C224.662 18.2922 225.472 18.4542 225.958 18.6162C226.525 18.9403 226.768 19.1833 226.768 19.3453Z" fill="#263238"/>
<path d="M238.514 17.9682C238.271 18.2922 237.461 17.9682 236.408 18.0492C235.355 18.0492 234.545 18.2922 234.302 18.0492C234.221 17.8872 234.302 17.6441 234.707 17.3201C235.031 17.0771 235.679 16.834 236.408 16.834C237.137 16.834 237.704 17.0771 238.109 17.3201C238.433 17.5631 238.595 17.8062 238.514 17.9682Z" fill="#263238"/>
<path d="M228.388 8.97627C228.226 12.7026 225.553 16.186 221.908 17.4011C220.449 17.8872 218.667 18.2112 218.181 19.5883C217.695 21.0465 219.072 22.4236 219.72 23.8008C220.53 25.5019 220.125 27.7702 218.829 29.0663C218.1 29.8764 217.047 30.3624 216.318 31.1725C215.346 32.2256 215.022 33.7648 215.346 35.2229C215.589 36.6 216.399 37.8962 217.452 38.8683C214.05 39.0303 210.404 37.3291 209.27 34.1698C208.622 32.2256 208.946 30.2004 209.189 28.1752C209.756 23.6387 209.999 19.0213 209.756 14.4038C209.756 13.5937 209.675 12.7837 210.161 12.1356C210.566 11.4875 211.377 11.2445 212.106 11.0015C216.885 9.54333 221.746 8.32821 226.687 7.51813" fill="#263238"/>
<path d="M226.444 7.68012C227.416 9.38129 228.307 11.1635 229.766 12.4596C231.224 13.8367 233.168 14.7278 235.112 14.3228C234.788 13.7557 234.383 13.1887 234.059 12.5406C236.813 15.3759 240.054 17.5631 243.699 19.0213C241.917 15.6999 240.054 12.2166 237.218 9.70532C234.383 7.19407 230.252 5.73593 226.687 7.11306" fill="#263238"/>
<path d="M234.302 53.7737L212.268 52.0726L215.913 63.7377L234.788 70.0564L237.299 65.7629L234.302 53.7737Z" fill="#AA6550"/>
<path d="M192.502 72.7297C187.236 71.0285 181.242 71.8386 176.624 74.8359C172.007 77.8332 168.847 83.0177 168.199 88.5262C167.632 93.8728 169.333 99.3003 168.442 104.647C167.794 108.535 165.688 112.1 164.797 115.907C162.853 124.251 166.741 133.405 173.708 138.346C180.675 143.288 190.153 144.098 198.172 141.263L206.435 128.301L200.927 78.4812L192.502 72.7297Z" fill="#455A64"/>
<path d="M205.706 107.968C205.706 107.968 203.843 118.094 204.977 119.633C206.111 121.172 207.974 121.334 207.974 121.334L244.509 118.499L245.724 98.4092C245.724 98.4092 249.369 84.6378 247.749 78.8052C246.048 72.9727 238.757 55.0699 238.757 55.0699L233.168 53.3687C233.168 53.3687 233.168 59.2013 231.143 59.6063C229.036 60.0114 219.153 60.0114 214.293 53.7737L212.43 52.0726L201.98 59.6873L206.759 100.839L205.706 107.968Z" fill="#505FE8"/>
<path d="M189.18 72.0006C189.18 72.0006 195.985 61.7936 198.739 58.8773C203.033 54.3408 209.108 52.4776 210.486 53.3687C212.511 54.5028 222.394 64.8719 223.204 71.8386C224.014 78.8053 223.204 96.141 223.204 96.141L214.779 98.6522L214.698 90.3084L213.321 69.7324C213.321 69.7324 209.837 60.0114 201.818 59.6874C201.818 59.6874 193.393 66.7351 193.069 73.6208L189.18 72.0006Z" fill="#455A64"/>
<path d="M208.784 110.56L191.935 125.952L196.39 131.866C196.39 131.866 216.885 118.823 218.991 105.781L208.784 110.56Z" fill="#455A64"/>
<path d="M187.479 142.802C187.479 142.802 186.507 142.316 185.049 141.1C183.591 139.885 181.647 137.86 180.026 134.863C179.216 133.324 178.568 131.623 178.082 129.597C177.677 127.653 177.434 125.466 177.434 123.198C177.353 118.661 178.082 113.801 178.973 108.697C179.864 103.594 180.593 98.7332 180.674 94.2778C180.674 92.0096 180.512 89.9033 180.188 87.9592C179.864 86.015 179.459 84.1518 179.216 82.4506C178.973 80.7494 178.973 79.2103 179.216 77.8331C179.459 76.456 179.864 75.4029 180.35 74.5118C180.836 73.7017 181.323 73.1347 181.728 72.8106C182.133 72.4866 182.295 72.3246 182.295 72.3246C182.376 72.4056 181.404 72.9727 180.512 74.5928C180.107 75.4029 179.702 76.537 179.459 77.8331C179.297 79.1293 179.297 80.6684 179.54 82.3696C179.783 84.0708 180.188 85.8529 180.512 87.7971C180.836 89.7413 180.998 91.9285 180.998 94.1968C180.998 98.7332 180.188 103.594 179.297 108.697C178.406 113.801 177.677 118.661 177.758 123.198C177.758 125.466 178.001 127.572 178.406 129.516C178.811 131.461 179.459 133.162 180.269 134.701C181.809 137.698 183.672 139.723 185.13 141.019C185.454 141.344 185.778 141.587 186.102 141.83C186.345 142.073 186.669 142.235 186.831 142.397C186.993 142.559 187.155 142.64 187.317 142.721C187.398 142.721 187.479 142.802 187.479 142.802Z" fill="#263238"/>
<path d="M179.621 103.999C179.621 104.08 177.029 104.242 173.789 104.242C170.548 104.242 167.956 104.161 167.956 103.999C167.956 103.837 170.548 103.756 173.789 103.756C177.029 103.837 179.621 103.918 179.621 103.999Z" fill="#263238"/>
<path d="M238.677 55.0699C238.677 55.0699 245.238 57.9862 247.506 61.7125C249.775 65.4389 255.85 86.663 255.85 86.663L247.263 88.3642L238.677 55.0699Z" fill="#505FE8"/>
<path d="M243.456 85.7719C243.456 85.7719 241.512 66.33 240.621 65.1149C239.811 63.8187 238.434 54.4218 234.302 53.7737C234.302 53.7737 238.758 54.8269 241.269 56.447C243.78 58.0672 246.615 66.8971 246.615 66.8971L248.236 82.2886L243.456 85.7719Z" fill="#455A64"/>
<path d="M191.125 68.7603C191.044 68.8413 190.801 68.1122 189.91 67.5451C189.424 67.3021 188.857 67.0591 188.209 66.9781C187.56 66.9781 186.75 67.1401 186.021 67.5451C184.563 68.3552 183.834 69.7324 183.348 70.7045C182.943 71.6766 182.7 72.3246 182.7 72.3246C182.619 72.3246 182.7 71.5955 183.105 70.5424C183.51 69.4893 184.239 68.0312 185.859 67.1401C186.588 66.7351 187.479 66.492 188.209 66.573C188.938 66.6541 189.667 66.8971 190.072 67.2211C190.963 67.9502 191.125 68.7603 191.125 68.7603Z" fill="#263238"/>
<path d="M213.321 69.7324C213.321 69.7324 213.078 69.3273 212.835 68.5983C212.754 68.4362 212.673 68.1932 212.592 68.0312C212.511 67.7882 212.349 67.6262 212.187 67.3831C212.025 67.1401 211.944 66.8971 211.782 66.573C211.62 66.33 211.377 66.006 211.215 65.763C210.405 64.6289 209.271 63.2517 207.65 62.1986C206.111 61.0645 204.086 60.1734 201.818 59.9304C200.36 59.7684 198.821 60.4164 197.443 61.3075H197.524C197.443 61.3885 197.443 61.4695 197.362 61.4695C193.555 65.925 190.639 70.2994 188.695 73.6208C187.722 75.2409 186.993 76.618 186.426 77.5901C186.183 77.9952 186.021 78.4002 185.859 78.6433C185.697 78.8863 185.616 79.0483 185.616 79.0483C185.616 79.0483 185.616 78.8863 185.778 78.6433C185.859 78.4002 186.021 77.9952 186.264 77.5091C186.75 76.537 187.479 75.1599 188.37 73.4587C190.234 70.1374 193.15 65.682 196.957 61.1455C197.038 61.0645 197.038 60.9835 197.119 60.9835C197.848 60.4974 198.578 60.1734 199.388 59.8494C200.198 59.6063 201.008 59.4443 201.818 59.5253C204.167 59.7684 206.273 60.7405 207.812 61.8746C209.433 63.0087 210.567 64.3858 211.377 65.601C211.539 65.925 211.782 66.168 211.944 66.492C212.106 66.8161 212.187 67.0591 212.349 67.3021C212.511 67.5451 212.592 67.7882 212.673 68.0312C212.754 68.2742 212.835 68.4362 212.916 68.6793C213.24 69.3273 213.402 69.7324 213.321 69.7324Z" fill="#263238"/>
<path d="M206.273 118.013C206.273 118.094 205.625 118.661 204.329 119.471C203.114 120.281 201.251 121.335 199.144 122.226C197.038 123.117 195.013 123.684 193.555 124.008C192.097 124.332 191.125 124.413 191.125 124.413C191.125 124.332 192.016 124.17 193.474 123.765C194.932 123.36 196.876 122.712 198.982 121.902C201.089 121.011 202.871 120.038 204.167 119.309C205.463 118.499 206.192 117.932 206.273 118.013Z" fill="#263238"/>
<path d="M303.321 202.91L298.217 252.73L282.502 252.487L281.367 199.912L303.321 202.91Z" fill="#AA6550"/>
<path d="M298.622 247.95V249.003C298.622 249.003 316.282 256.132 316.444 259.453L281.367 259.21L281.934 247.545C287.119 249.975 292.627 250.299 298.622 247.95Z" fill="#455A64"/>
<g opacity="0.6">
<g opacity="0.6">
<g opacity="0.6">
<g opacity="0.6">
<g opacity="0.6">
<g opacity="0.6">
<g opacity="0.6">
<g opacity="0.6">
<path opacity="0.6" d="M285.499 251.352C284.851 251.514 284.365 252.325 284.527 252.973C284.689 253.621 285.418 254.188 286.147 253.945C286.795 253.783 287.443 252.892 287.2 252.244C286.957 251.596 286.066 251.028 285.418 251.352" fill="white"/>
</g>
</g>
</g>
</g>
</g>
</g>
</g>
</g>
<g opacity="0.6">
<g opacity="0.6">
<g opacity="0.6">
<g opacity="0.6">
<g opacity="0.6">
<g opacity="0.6">
<g opacity="0.6">
<path opacity="0.6" d="M281.367 259.21L281.529 256.375L315.067 257.671C315.067 257.671 316.606 258.4 316.444 259.453L281.367 259.21Z" fill="white"/>
</g>
</g>
</g>
</g>
</g>
</g>
</g>
<path d="M298.784 249.084C298.784 249.246 297.893 249.327 297.083 249.894C296.192 250.38 295.787 251.19 295.625 251.109C295.463 251.109 295.706 250.056 296.759 249.408C297.731 248.76 298.784 248.922 298.784 249.084Z" fill="#263238"/>
<path d="M302.429 250.623C302.429 250.785 301.7 251.109 301.133 251.758C300.485 252.487 300.404 253.216 300.242 253.216C300.08 253.216 299.999 252.244 300.728 251.352C301.376 250.542 302.429 250.461 302.429 250.623Z" fill="#263238"/>
<path d="M304.455 255.079C304.293 255.079 304.05 254.269 304.536 253.297C304.941 252.325 305.751 252.001 305.832 252.163C305.913 252.325 305.427 252.811 305.022 253.54C304.698 254.35 304.617 255.079 304.455 255.079Z" fill="#263238"/>
<path d="M307.938 215.466L331.755 242.604L320.575 253.54L292.304 228.832L307.938 215.466Z" fill="#AA6550"/>
<path d="M328.676 238.877L329.405 239.606C329.405 239.606 346.903 232.154 349.414 234.341L324.545 259.048L316.687 250.461C322.034 248.517 326.165 244.872 328.676 238.877Z" fill="#455A64"/>
<g opacity="0.6">
<g opacity="0.6">
<g opacity="0.6">
<g opacity="0.6">
<g opacity="0.6">
<g opacity="0.6">
<g opacity="0.6">
<g opacity="0.6">
<path opacity="0.6" d="M321.791 250.623C321.467 251.271 321.629 252.082 322.277 252.487C322.844 252.892 323.735 252.649 324.14 252.082C324.464 251.515 324.302 250.461 323.654 250.137C323.006 249.813 321.953 250.137 321.791 250.785" fill="white"/>
</g>
</g>
</g>
</g>
</g>
</g>
</g>
</g>
<g opacity="0.6">
<g opacity="0.6">
<g opacity="0.6">
<g opacity="0.6">
<g opacity="0.6">
<g opacity="0.6">
<g opacity="0.6">
<path opacity="0.6" d="M324.545 259.048L322.682 256.942L347.227 234.017C347.227 234.017 348.847 233.369 349.495 234.341L324.545 259.048Z" fill="white"/>
</g>
</g>
</g>
</g>
</g>
</g>
</g>
<path d="M329.567 239.606C329.648 239.768 329.162 240.416 328.919 241.389C328.676 242.361 328.919 243.171 328.757 243.252C328.595 243.333 328.109 242.442 328.352 241.227C328.676 240.092 329.486 239.525 329.567 239.606Z" fill="#263238"/>
<path d="M333.294 238.148C333.456 238.229 333.132 238.958 333.213 239.93C333.294 240.821 333.699 241.551 333.618 241.632C333.537 241.794 332.727 241.146 332.646 240.011C332.484 238.796 333.132 237.986 333.294 238.148Z" fill="#263238"/>
<path d="M337.83 239.768C337.749 239.93 336.939 239.444 336.615 238.472C336.291 237.5 336.534 236.69 336.696 236.69C336.858 236.69 336.858 237.419 337.182 238.229C337.506 239.12 337.992 239.606 337.83 239.768Z" fill="#263238"/>
<path d="M206.516 60.2544C204.734 58.8773 202.222 58.9583 200.602 60.5784C197.605 63.5757 193.312 68.5982 193.15 72.6486C192.988 78.8863 191.934 95.3309 191.934 95.3309L214.779 94.5208C214.779 94.5208 214.779 72.6486 212.754 67.6261C211.619 64.7099 208.784 62.0366 206.516 60.2544Z" fill="#505FE8"/>
<path d="M194.608 95.2499C194.608 95.2499 193.312 107.806 194.77 113.558C196.228 119.552 199.225 119.471 201.736 119.633C204.248 119.795 243.456 99.2193 243.456 99.2193L239.081 91.5235L209.513 100.434L209.756 94.6828L194.608 95.2499Z" fill="#AA6550"/>
<path d="M238.839 91.6855L245.886 82.7746L252.286 81.3165L260.063 82.2076C260.063 82.2076 260.387 83.3417 259.091 83.9898L261.845 84.1518C261.845 84.1518 262.412 85.5289 260.792 86.177L262.736 86.501C262.736 86.501 261.845 88.5262 259.658 88.1212C257.47 87.7161 253.906 87.7161 253.906 87.7161L250.099 89.8223L255.769 89.5793L259.901 90.3894C259.901 90.3894 260.468 91.4425 259.496 91.6855C258.524 91.9286 254.959 91.6855 254.959 91.6855L249.532 93.1437C249.532 93.1437 248.398 96.627 247.669 97.4371C246.939 98.2472 243.051 99.2193 243.051 99.2193L238.839 91.6855Z" fill="#AA6550"/>
<path d="M261.926 84.1518C261.926 84.2328 261.116 84.1518 259.819 84.0708C258.523 83.9898 256.741 83.8278 254.716 83.5847C254.068 83.5037 253.42 83.4227 252.772 83.3417H252.853C251.395 83.7468 250.099 84.0708 249.207 84.3138C248.316 84.5568 247.749 84.6379 247.749 84.6379C247.749 84.5568 248.235 84.3948 249.126 84.0708C250.017 83.7468 251.314 83.3417 252.772 82.9367H252.853C253.42 83.0177 254.068 83.0987 254.797 83.0987C256.741 83.3417 258.604 83.5037 259.9 83.7468C261.116 83.9898 261.926 84.1518 261.926 84.1518Z" fill="#AA6550"/>
<path d="M262.331 86.501C262.331 86.582 261.602 86.501 260.386 86.339C259.171 86.177 257.551 86.015 255.769 85.6909C255.121 85.6099 254.554 85.5289 253.987 85.4479H254.068C251.475 86.42 249.612 87.1491 249.612 87.0681C249.612 86.9871 251.394 86.177 253.987 85.1239H254.068H254.149C254.716 85.2049 255.283 85.2859 255.931 85.3669C257.713 85.6099 259.333 85.8529 260.548 86.096C261.683 86.258 262.331 86.42 262.331 86.501Z" fill="#AA6550"/>
<path d="M243.132 99.2193C243.132 99.2193 243.375 99.1383 243.78 98.9763C244.185 98.8143 244.833 98.6523 245.562 98.4092C245.967 98.2472 246.372 98.0852 246.858 97.9232C247.101 97.8422 247.344 97.6802 247.506 97.5181C247.749 97.3561 247.83 97.1131 247.992 96.8701C248.559 95.817 248.964 94.5208 249.45 93.1437V93.0627H249.531C251.152 92.6577 253.015 92.1716 254.959 91.6045C255.85 91.6856 256.903 91.6856 257.875 91.6856C258.361 91.6856 258.928 91.6856 259.414 91.6045C259.657 91.5235 259.819 91.4425 259.819 91.1995C259.819 91.0375 259.819 90.7135 259.657 90.5514L259.819 90.6324C258.523 90.3894 257.146 90.1464 255.688 89.8224H255.769C253.987 89.9034 252.043 89.9844 250.098 90.0654H249.207L249.936 89.6604C251.152 89.0123 252.448 88.2832 253.744 87.5541H253.825H253.906C255.364 87.5541 256.903 87.6351 258.442 87.7972C258.847 87.8782 259.252 87.8782 259.738 87.9592C260.143 88.0402 260.548 88.0402 260.872 87.9592C261.602 87.7972 262.25 87.1491 262.574 86.501L262.736 86.8251C262.088 86.7441 261.44 86.582 260.791 86.501L260.062 86.339L260.71 86.096C261.116 85.934 261.359 85.691 261.521 85.3669C261.683 85.0429 261.683 84.6378 261.602 84.3138L261.764 84.4758C260.872 84.3948 259.9 84.3948 259.009 84.3138L258.28 84.2328L258.928 83.9088C259.252 83.7468 259.495 83.5037 259.657 83.2607C259.819 83.0177 259.819 82.6126 259.819 82.3696L259.981 82.5316C257.227 82.2076 254.635 81.9646 252.205 81.6405H252.286C249.936 82.2076 247.83 82.6937 245.886 83.0987L245.967 83.0177C243.78 85.772 241.998 87.9592 240.701 89.4983C240.134 90.2274 239.648 90.7945 239.243 91.1995C239.081 91.3615 239 91.5235 238.838 91.6045C238.757 91.6856 238.676 91.7666 238.676 91.7666C238.676 91.7666 238.676 91.6856 238.757 91.6045C238.838 91.4425 239 91.3615 239.081 91.1185C239.405 90.7135 239.891 90.0654 240.458 89.3363C241.674 87.7972 243.456 85.5289 245.562 82.7747H245.643C247.587 82.2886 249.693 81.8026 252.043 81.2355C254.473 81.4785 257.065 81.8026 259.819 82.0456H259.981V82.2076C260.062 82.6127 259.981 83.0177 259.819 83.4227C259.657 83.8278 259.333 84.0708 258.928 84.2328L258.847 83.8278C259.738 83.9088 260.629 83.9088 261.602 83.9898H261.764L261.845 84.1518C262.007 84.6378 262.007 85.1239 261.764 85.5289C261.521 85.934 261.116 86.258 260.71 86.42L260.629 86.015C261.278 86.096 261.926 86.258 262.574 86.339L262.817 86.42L262.736 86.6631C262.331 87.4731 261.683 88.1212 260.791 88.3642C260.386 88.4452 259.9 88.4452 259.495 88.3642C259.09 88.2832 258.685 88.2022 258.28 88.2022C256.741 88.0402 255.202 87.9592 253.825 87.9592H253.906C252.61 88.6883 251.314 89.4173 250.098 90.0654L250.017 89.6604C251.962 89.5793 253.906 89.4983 255.688 89.4173C257.146 89.6604 258.523 89.9844 259.819 90.2274H259.9V90.3084C260.062 90.6325 260.143 90.8755 260.062 91.1995C259.981 91.5235 259.657 91.8476 259.414 91.8476C258.847 91.9286 258.361 91.9286 257.794 91.9286C256.741 91.9286 255.769 91.8476 254.878 91.7666H254.959C252.934 92.2526 251.152 92.7387 249.531 93.1437L249.612 93.0627C249.126 94.5208 248.64 95.736 248.073 96.8701C247.911 97.1131 247.749 97.4371 247.506 97.5991C247.263 97.7612 247.02 97.9232 246.777 98.0042C246.291 98.2472 245.886 98.3282 245.481 98.4902C244.671 98.7333 244.104 98.8953 243.618 99.0573C243.456 99.1383 243.294 99.1383 243.132 99.1383C243.213 99.2193 243.132 99.2193 243.132 99.2193Z" fill="#AA6550"/>
<path d="M191.529 95.2499C191.529 95.2499 191.691 95.2499 191.934 95.1689C192.258 95.1689 192.583 95.0879 193.069 95.0879C194.122 95.0069 195.499 95.0069 197.2 94.9258C200.764 94.7638 205.706 94.6018 211.376 94.3588L211.214 94.5208C211.295 92.4956 211.214 90.3894 211.133 88.2022C210.971 84.6378 210.647 81.1545 210.404 78.0762C210.323 76.537 210.242 74.9979 210.161 73.6207C209.999 72.2436 209.837 70.9475 209.594 69.8133C209.027 67.5451 208.136 65.8439 207.407 64.7908C206.678 63.7377 206.03 63.2517 206.111 63.2517C206.111 63.2517 206.273 63.3327 206.516 63.5757C206.759 63.8187 207.164 64.2238 207.569 64.7098C208.379 65.7629 209.351 67.4641 209.918 69.8133C210.242 70.9475 210.404 72.2436 210.566 73.6207C210.728 74.9979 210.728 76.456 210.89 78.0762C211.133 81.1545 211.457 84.6378 211.619 88.2022C211.7 90.3894 211.781 92.4956 211.7 94.5208V94.6828H211.538C205.868 94.8448 200.926 95.0069 197.362 95.0879C195.661 95.0879 194.203 95.1689 193.231 95.1689C192.745 95.1689 192.421 95.1689 192.096 95.1689C191.691 95.2499 191.529 95.2499 191.529 95.2499Z" fill="#263238"/>
<path d="M207.893 121.335C207.893 121.335 197.524 135.43 197.524 141.101C197.524 146.771 197.767 155.196 204.491 161.272C211.215 167.347 293.519 238.391 293.519 238.391L313.609 220.731L239.001 145.394C239.001 145.394 242.484 139.075 240.945 136.483C239.406 133.891 237.056 133 237.056 133L236.813 119.066L207.893 121.335Z" fill="#263238"/>
<path d="M244.428 118.499L246.21 133.405C246.21 133.405 299.189 160.866 303.483 168.967C305.427 172.613 307.29 205.907 307.29 205.907L281.206 206.474L277.803 180.146L263.789 172.532L238.676 147.095L230.171 119.633L244.428 118.499Z" fill="#263238"/>
<path d="M220.531 120.767C220.531 120.767 220.612 121.091 220.774 121.659C220.855 122.226 221.017 123.117 221.098 124.17C221.179 125.223 221.098 126.519 220.855 127.896C220.612 129.273 220.045 130.731 219.072 132.109C218.1 133.405 216.885 134.458 215.589 135.106C214.293 135.673 212.997 135.835 211.944 135.754C210.891 135.673 210.081 135.349 209.513 135.106C209.27 134.944 209.027 134.863 208.946 134.782C208.784 134.701 208.784 134.62 208.784 134.62C208.784 134.539 209.919 135.43 211.944 135.511C212.997 135.511 214.212 135.349 215.427 134.782C216.642 134.215 217.776 133.243 218.748 131.947C220.612 129.354 220.855 126.357 220.855 124.332C220.774 122.064 220.45 120.767 220.531 120.767Z" fill="#263238"/>
<path d="M240.864 130.893C240.864 130.893 240.378 131.38 239.487 131.947C238.595 132.514 237.218 133.162 235.679 133.648C234.059 134.134 232.601 134.296 231.548 134.296C230.495 134.296 229.847 134.215 229.847 134.134C229.847 133.972 232.52 134.215 235.598 133.243C238.676 132.352 240.783 130.731 240.864 130.893Z" fill="#455A64"/>
<path d="M239.244 120.929C239.244 120.929 239.73 120.767 240.378 121.253C240.702 121.497 240.945 121.902 240.945 122.469C240.945 122.955 240.621 123.603 240.054 123.846C239.487 124.089 238.839 123.846 238.433 123.522C238.028 123.117 238.028 122.55 238.271 122.226C238.433 121.902 238.757 121.659 238.92 121.659C239.163 121.578 239.244 121.659 239.244 121.659C239.244 121.74 238.757 121.821 238.514 122.388C238.433 122.712 238.433 123.036 238.676 123.36C238.92 123.603 239.406 123.765 239.811 123.603C240.216 123.441 240.459 122.955 240.459 122.631C240.459 122.226 240.297 121.902 240.054 121.659C239.73 120.929 239.244 121.01 239.244 120.929Z" fill="#455A64"/>
<path d="M240.945 148.31C240.864 148.391 240.296 147.743 239.162 146.852C238.109 145.961 236.57 144.746 234.869 143.531C233.087 142.316 231.386 141.425 230.17 140.857C228.874 140.29 228.145 139.966 228.145 139.885C228.145 139.804 229.036 140.047 230.332 140.614C231.629 141.182 233.411 141.992 235.193 143.207C236.975 144.422 238.433 145.637 239.486 146.609C240.458 147.581 241.026 148.31 240.945 148.31Z" fill="#455A64"/>
<path d="M244.347 138.346C244.266 138.346 244.185 137.05 244.914 135.673C245.562 134.296 246.615 133.486 246.696 133.567C246.777 133.648 245.886 134.539 245.319 135.835C244.59 137.131 244.428 138.346 244.347 138.346Z" fill="#455A64"/>
<path d="M303.807 242.361C303.726 242.361 303.24 241.875 302.43 240.983C301.62 240.092 300.486 238.796 299.351 237.419C299.027 237.095 298.784 236.69 298.46 236.528C298.136 236.285 297.731 236.285 297.407 236.285C296.678 236.366 296.03 236.771 295.544 237.095C294.572 237.824 293.762 238.067 293.762 237.986C293.762 237.905 294.41 237.581 295.382 236.852C295.868 236.528 296.516 236.042 297.407 235.961C297.812 235.88 298.298 235.961 298.784 236.204C299.189 236.447 299.513 236.852 299.837 237.176C301.053 238.634 302.106 239.93 302.835 240.821C303.402 241.713 303.888 242.361 303.807 242.361Z" fill="#455A64"/>
<path d="M293.519 238.391C293.519 238.391 293.6 238.31 293.843 238.067C294.086 237.824 294.41 237.5 294.896 237.095C295.787 236.285 297.164 235.07 298.865 233.531C302.349 230.452 307.29 225.997 313.447 220.569V220.812C303.483 210.93 290.197 197.644 275.616 183.063C265.733 173.18 256.498 163.945 248.397 155.844C247.425 154.872 246.372 153.819 245.4 152.847C244.914 152.361 244.428 151.875 243.942 151.389C243.456 150.902 242.97 150.416 242.484 150.011C241.512 149.12 240.459 148.31 239.972 147.014C239.729 146.447 239.648 145.718 239.81 145.07C239.972 144.422 240.215 143.936 240.378 143.369C240.783 142.235 241.026 141.101 241.188 140.047C241.35 138.994 241.35 137.86 240.945 136.888C240.459 135.997 239.81 135.187 239.081 134.539C238.352 133.891 237.623 133.324 236.813 133H236.732V132.919C236.651 128.706 236.651 125.304 236.651 123.036C236.651 121.902 236.651 121.01 236.651 120.443C236.651 120.119 236.651 119.957 236.651 119.795C236.651 119.633 236.651 119.552 236.651 119.552C236.651 119.552 236.651 119.633 236.651 119.795C236.651 119.957 236.651 120.2 236.651 120.443C236.651 121.092 236.732 121.902 236.732 123.036C236.813 125.385 236.894 128.706 236.975 132.919L236.894 132.838C237.704 133.243 238.514 133.729 239.243 134.458C239.972 135.106 240.621 135.916 241.107 136.888C241.512 137.941 241.512 139.075 241.35 140.128C241.188 141.263 240.945 142.397 240.54 143.531C240.377 144.098 240.134 144.665 239.972 145.232C239.81 145.799 239.891 146.366 240.134 146.933C240.54 148.067 241.593 148.877 242.565 149.768C243.051 150.173 243.537 150.659 244.023 151.146C244.509 151.632 244.995 152.118 245.481 152.604C246.453 153.576 247.425 154.548 248.478 155.601C256.579 163.702 265.814 172.937 275.697 182.739C290.278 197.32 303.564 210.605 313.447 220.569L313.528 220.65L313.366 220.731C307.209 226.159 302.106 230.533 298.622 233.612C296.921 235.151 295.544 236.285 294.572 237.095C294.086 237.5 293.762 237.743 293.519 237.986C293.681 238.31 293.519 238.391 293.519 238.391Z" fill="#455A64"/>
<path d="M305.265 239.444C305.184 239.525 303.969 237.905 302.835 235.718C301.7 233.531 301.133 231.668 301.214 231.587C301.295 231.506 302.105 233.369 303.24 235.475C304.374 237.662 305.427 239.363 305.265 239.444Z" fill="#455A64"/>
<path d="M310.449 235.718C310.368 235.799 308.748 234.503 307.128 232.478C305.508 230.452 304.617 228.508 304.698 228.427C304.779 228.346 305.832 230.209 307.452 232.154C308.991 234.26 310.53 235.637 310.449 235.718Z" fill="#455A64"/>
<path d="M313.69 232.154C313.609 232.235 312.394 230.695 311.017 228.832C309.558 226.969 308.343 225.43 308.505 225.349C308.586 225.268 309.964 226.645 311.422 228.508C312.799 230.452 313.771 232.073 313.69 232.154Z" fill="#455A64"/>
<path d="M317.092 226.159C317.011 226.24 315.796 225.511 314.338 224.539C312.88 223.567 311.827 222.676 311.827 222.595C311.908 222.514 313.123 223.243 314.581 224.215C316.039 225.187 317.173 226.078 317.092 226.159Z" fill="#455A64"/>
<path d="M269.379 178.931C269.46 179.012 265.895 182.334 261.359 186.303C256.823 190.272 253.096 193.432 253.015 193.351C252.934 193.27 256.499 189.948 261.035 185.979C265.571 182.01 269.298 178.85 269.379 178.931Z" fill="#455A64"/>
<path d="M268.731 180.308C268.812 180.308 268.407 180.956 267.759 181.929C267.111 182.901 266.138 184.116 265.004 185.412C263.789 186.708 262.655 187.761 261.764 188.49C260.873 189.219 260.306 189.624 260.225 189.543C260.144 189.462 262.331 187.68 264.68 185.088C267.03 182.577 268.569 180.227 268.731 180.308Z" fill="#455A64"/>
<path d="M222.07 122.145C222.07 122.145 222.07 122.388 221.989 122.793C221.908 123.198 221.665 123.846 221.341 124.575C221.017 125.304 220.612 126.114 219.964 127.005C219.397 127.896 218.587 128.787 217.776 129.597C216.885 130.407 215.913 131.055 215.022 131.623C214.131 132.109 213.24 132.514 212.511 132.757C211.782 133 211.134 133.162 210.729 133.243C210.324 133.324 210.081 133.324 210.081 133.324C210.081 133.243 211.053 133.081 212.43 132.514C213.159 132.271 213.969 131.785 214.86 131.299C215.751 130.731 216.642 130.083 217.533 129.273C218.425 128.463 219.154 127.572 219.721 126.762C220.288 125.952 220.774 125.142 221.098 124.413C221.746 123.036 221.989 122.145 222.07 122.145Z" fill="#455A64"/>
<path d="M284.689 170.101C284.77 170.182 282.502 171.884 280.477 174.719C278.451 177.554 277.641 180.308 277.56 180.227C277.479 180.227 277.641 179.498 278.046 178.445C278.451 177.392 279.18 175.934 280.153 174.476C281.206 173.018 282.259 171.884 283.15 171.155C284.041 170.425 284.689 170.101 284.689 170.101Z" fill="#455A64"/>
<path d="M290.036 173.099C290.036 173.261 287.2 173.747 283.879 175.124C280.558 176.501 278.127 178.202 278.046 178.121C278.046 178.04 278.613 177.635 279.586 176.906C280.558 176.258 282.016 175.448 283.717 174.719C285.418 173.99 286.957 173.585 288.172 173.342C289.307 173.099 290.036 173.018 290.036 173.099Z" fill="#455A64"/>
</svg>
