<svg width="19" height="18" viewBox="0 0 19 18" fill="none" xmlns="http://www.w3.org/2000/svg">
<path d="M16.6614 9.81666C16.698 9.55 16.7255 9.28333 16.7255 9C16.7255 8.71666 16.698 8.45 16.6614 8.18333L18.5931 6.80833C18.767 6.68333 18.8128 6.45833 18.7029 6.275L16.872 3.39166C16.818 3.30569 16.7321 3.24001 16.6298 3.20642C16.5275 3.17282 16.4153 3.1735 16.3135 3.20833L14.0339 4.04166C13.5579 3.70833 13.0452 3.43333 12.4867 3.225L12.1389 1.01666C12.1237 0.918616 12.0698 0.828965 11.9872 0.764528C11.9046 0.700091 11.799 0.665295 11.6903 0.666665H8.0283C7.79942 0.666665 7.60717 0.816665 7.57971 1.01666L7.23182 3.225C6.67337 3.43333 6.16069 3.71666 5.68464 4.04166L3.40506 3.20833C3.35198 3.19194 3.29632 3.1835 3.24027 3.18333C3.08464 3.18333 2.929 3.25833 2.84661 3.39166L1.01562 6.275C0.896607 6.45833 0.951537 6.68333 1.12548 6.80833L3.05717 8.18333C3.02055 8.45 2.99309 8.725 2.99309 9C2.99309 9.275 3.02055 9.55 3.05717 9.81666L1.12548 11.1917C0.951537 11.3167 0.905762 11.5417 1.01562 11.725L2.84661 14.6083C2.90058 14.6943 2.98642 14.76 3.08875 14.7936C3.19109 14.8272 3.30322 14.8265 3.40506 14.7917L5.68464 13.9583C6.16069 14.2917 6.67337 14.5667 7.23182 14.775L7.57971 16.9833C7.60717 17.1833 7.79942 17.3333 8.0283 17.3333H11.6903C11.9191 17.3333 12.1114 17.1833 12.1389 16.9833L12.4867 14.775C13.0452 14.5667 13.5579 14.2833 14.0339 13.9583L16.3135 14.7917C16.3684 14.8083 16.4234 14.8167 16.4783 14.8167C16.6339 14.8167 16.7896 14.7417 16.872 14.6083L18.7029 11.725C18.8128 11.5417 18.767 11.3167 18.5931 11.1917L16.6614 9.81666ZM14.8487 8.39166C14.8853 8.65 14.8945 8.825 14.8945 9C14.8945 9.175 14.8762 9.35833 14.8487 9.60833L14.7206 10.55L15.5353 11.1333L16.5241 11.8333L15.8832 12.8417L14.7206 12.4167L13.7684 12.0667L12.9445 12.6333C12.5508 12.9 12.1755 13.1 11.8001 13.2417L10.8297 13.6L10.6832 14.5417L10.5001 15.6667H9.21844L9.04449 14.5417L8.89802 13.6L7.92759 13.2417C7.53393 13.0917 7.16773 12.9 6.80154 12.65L5.96844 12.0667L4.99802 12.425L3.83534 12.85L3.19449 11.8417L4.18323 11.1417L4.99802 10.5583L4.86985 9.61666C4.84238 9.35833 4.82407 9.16666 4.82407 9C4.82407 8.83333 4.84238 8.64166 4.86985 8.39166L4.99802 7.45L4.18323 6.86666L3.19449 6.16666L3.83534 5.15833L4.99802 5.58333L5.95013 5.93333L6.77407 5.36666C7.16773 5.1 7.54309 4.9 7.91844 4.75833L8.88886 4.4L9.03534 3.45833L9.21844 2.33333H10.491L10.6649 3.45833L10.8114 4.4L11.7818 4.75833C12.1755 4.90833 12.5417 5.1 12.9079 5.35L13.741 5.93333L14.7114 5.575L15.8741 5.15L16.5149 6.15833L15.5353 6.86666L14.7206 7.45L14.8487 8.39166ZM9.85928 5.66666C7.83604 5.66666 6.19731 7.15833 6.19731 9C6.19731 10.8417 7.83604 12.3333 9.85928 12.3333C11.8825 12.3333 13.5213 10.8417 13.5213 9C13.5213 7.15833 11.8825 5.66666 9.85928 5.66666ZM9.85928 10.6667C8.85224 10.6667 8.0283 9.91666 8.0283 9C8.0283 8.08333 8.85224 7.33333 9.85928 7.33333C10.8663 7.33333 11.6903 8.08333 11.6903 9C11.6903 9.91666 10.8663 10.6667 9.85928 10.6667Z" fill="white"/>
</svg>
