<svg width="21" height="14" viewBox="0 0 21 14" fill="none" xmlns="http://www.w3.org/2000/svg">
<path d="M14.4032 0.25H11.7491C11.5019 0.25 11.264 0.355469 11.0817 0.545313L8.04445 3.70937C8.04136 3.71289 8.03827 3.71992 8.03518 3.72344C7.52228 4.27187 7.53155 5.14727 7.9703 5.69219C8.3627 6.18086 9.18767 6.31094 9.70367 5.78711C9.70676 5.78359 9.71294 5.78359 9.71603 5.78008L12.1848 3.20664C12.3856 2.99922 12.7008 3.01328 12.8831 3.2418C13.0684 3.47031 13.053 3.82539 12.8522 4.03633L12.0457 4.87656L16.5445 9.03203C16.6341 9.1164 16.7144 9.20781 16.7886 9.30273V2.5L15.1015 0.580469C14.9192 0.369531 14.6659 0.25 14.4032 0.25ZM17.7804 2.50703V10.3785C17.7804 11.0008 18.2222 11.5035 18.7691 11.5035H20.7466V2.50703H17.7804ZM19.2635 10.3785C18.9916 10.3785 18.7691 10.1254 18.7691 9.81602C18.7691 9.50664 18.9916 9.25352 19.2635 9.25352C19.5354 9.25352 19.7578 9.50664 19.7578 9.81602C19.7578 10.1254 19.5354 10.3785 19.2635 10.3785ZM0.971924 11.5H2.94939C3.49628 11.5 3.93812 10.9973 3.93812 10.375V2.50703H0.971924V11.5ZM2.45502 9.25352C2.72692 9.25352 2.94939 9.50664 2.94939 9.81602C2.94939 10.1254 2.72692 10.3785 2.45502 10.3785C2.18312 10.3785 1.96066 10.1254 1.96066 9.81602C1.96066 9.50312 2.18312 9.25352 2.45502 9.25352ZM15.9234 9.90742L11.3104 5.64648L10.3834 6.61328C9.46575 7.56601 8.0599 7.47461 7.24111 6.45859C6.40995 5.425 6.47484 3.82539 7.37706 2.8832L9.9045 0.25H7.31526C7.05263 0.25 6.80236 0.369531 6.61697 0.580469L4.92685 2.5V10.3715H5.49229L8.28854 13.2508C9.13515 14.0348 10.3803 13.8871 11.0694 12.9238L11.0755 12.9168L11.6286 13.4617C12.1199 13.9187 12.846 13.8309 13.2446 13.2719L14.2148 11.9148L14.3816 12.0695C14.8049 12.4598 15.429 12.3895 15.772 11.9043L16.0655 11.493C16.4116 11.0078 16.3467 10.3012 15.9234 9.90742Z" fill="white"/>
</svg>
