<svg width="23" height="12" viewBox="0 0 23 12" fill="none" xmlns="http://www.w3.org/2000/svg">
<path d="M12.8733 5.16669C13.4165 5.16669 13.9475 5.02007 14.3992 4.74536C14.8509 4.47066 15.2029 4.08021 15.4107 3.6234C15.6186 3.16658 15.673 2.66391 15.567 2.17896C15.4611 1.69401 15.1995 1.24855 14.8154 0.898921C14.4313 0.54929 13.9419 0.311188 13.4091 0.214725C12.8764 0.118262 12.3242 0.16777 11.8223 0.356989C11.3204 0.546208 10.8915 0.866639 10.5897 1.27776C10.2879 1.68889 10.1269 2.17223 10.1269 2.66669C10.1269 3.32973 10.4162 3.96561 10.9313 4.43446C11.4463 4.9033 12.1449 5.16669 12.8733 5.16669ZM12.8733 1.83335C13.0544 1.83335 13.2314 1.88223 13.382 1.9738C13.5325 2.06536 13.6498 2.19551 13.7191 2.34779C13.7884 2.50006 13.8066 2.66761 13.7712 2.82926C13.7359 2.99091 13.6487 3.1394 13.5207 3.25594C13.3926 3.37249 13.2295 3.45185 13.0519 3.48401C12.8743 3.51616 12.6903 3.49966 12.523 3.43659C12.3557 3.37351 12.2127 3.2667 12.1121 3.12966C12.0115 2.99262 11.9578 2.83151 11.9578 2.66669C11.9578 2.44567 12.0543 2.23371 12.226 2.07743C12.3977 1.92115 12.6305 1.83335 12.8733 1.83335ZM16.636 5.05002C17.1716 4.35088 17.4588 3.51904 17.4588 2.66669C17.4588 1.81434 17.1716 0.982496 16.636 0.283355C16.8993 0.206199 17.1742 0.166839 17.4508 0.166688C18.1792 0.166688 18.8778 0.43008 19.3929 0.898921C19.9079 1.36776 20.1973 2.00365 20.1973 2.66669C20.1973 3.32973 19.9079 3.96561 19.3929 4.43446C18.8778 4.9033 18.1792 5.16669 17.4508 5.16669C17.1742 5.16654 16.8993 5.12718 16.636 5.05002ZM12.8733 6.83335C7.38037 6.83335 7.38037 10.1667 7.38037 10.1667V11.8334H18.3663V10.1667C18.3663 10.1667 18.3663 6.83335 12.8733 6.83335ZM9.21136 10.1667C9.21136 9.92502 9.50432 8.50002 12.8733 8.50002C16.0776 8.50002 16.4804 9.80002 16.5353 10.1667H9.21136ZM22.9438 10.1667V11.8334H20.1973V10.1667C20.1759 9.54722 20.0191 8.93784 19.7362 8.37411C19.4533 7.81039 19.0498 7.30361 18.5494 6.88336C22.9438 7.29169 22.9438 10.1667 22.9438 10.1667ZM8.29587 6.00002H5.54939V8.50002H3.7184V6.00002H0.971924V4.33335H3.7184V1.83335H5.54939V4.33335H8.29587V6.00002Z" fill="white"/>
</svg>
